<?xml version="1.0" standalone="no"?>
<!DOCTYPE svg PUBLIC "-//W3C//DTD SVG 1.1//EN" "http://www.w3.org/Graphics/SVG/1.1/DTD/svg11.dtd" >
<svg>
<metadata>
Created by FontForge 20090622 at Sat May 23 14:27:00 2020
 By deploy user
(c) Copyright 2005 by Tong Duc Thinh. All Rights Reserved
</metadata>
<defs>
<font id="SFUAuchon" horiz-adv-x="1000" >
  <font-face 
    font-family="SFU Auchon"
    font-weight="400"
    font-stretch="normal"
    units-per-em="1000"
    panose-1="0 0 4 0 0 0 0 0 0 0"
    ascent="800"
    descent="-200"
    x-height="480"
    cap-height="652"
    bbox="-436 -223 1000 1114"
    underline-thickness="10"
    underline-position="-35"
    unicode-range="U+0020-U+F002"
  />
<missing-glyph horiz-adv-x="500" 
d="M63 0v1040h375v-1040h-375zM125 63h250v915h-250v-915z" />
    <glyph glyph-name=".notdef" horiz-adv-x="500" 
d="M63 0v1040h375v-1040h-375zM125 63h250v915h-250v-915z" />
    <glyph glyph-name=".null" horiz-adv-x="0" 
 />
    <glyph glyph-name="glyph2" horiz-adv-x="276" 
 />
    <glyph glyph-name="space" unicode=" " horiz-adv-x="276" 
 />
    <glyph glyph-name="exclam" unicode="!" horiz-adv-x="338" 
d="M120 200l-60 344q0 5 -2 15t-2 15q0 90 104 90q63 0 88 -25.5t22 -66.5l-2 -28l-58 -344h-90zM72 80q0 37 25.5 59.5t62.5 22.5t63.5 -22.5t26.5 -59.5q0 -39 -25.5 -64.5t-64.5 -25.5q-37 0 -62.5 26.5t-25.5 63.5z" />
    <glyph glyph-name="quotedbl" unicode="&#x22;" horiz-adv-x="552" 
d="M116 620q0 31 20.5 52.5t51.5 21.5q26 0 45 -18t19 -44v-18l-32 -204q0 -20 -10 -44q-12 -28 -30 -28q-11 0 -21 19q-14 25 -17 53zM290 622q0 32 18 54t50 22q28 0 49 -20t21 -48q0 -12 -2 -24l-32 -188q-7 -43 -15 -57q-11 -21 -23 -21q-30 0 -40 78z" />
    <glyph glyph-name="numbersign" unicode="#" horiz-adv-x="686" 
d="M228 482v212h88v-212h86v212h88v-212h86v-88h-86v-86h86v-88h-86v-220h-88v220h-86v-220h-88v220h-118v88h118v86h-118v88h118zM402 394h-86v-86h86v86z" />
    <glyph glyph-name="dollar" unicode="$" horiz-adv-x="522" 
d="M26 74v166h184v-54q0 -19 13.5 -34.5t32.5 -15.5q38 0 38 58q0 34 -45 56q-30 15 -81 26q-154 34 -154 180q0 78 44 127t122 57v60h150v-60q97 -22 150 -64v-150h-192v36q0 52 -32 52q-15 0 -27.5 -15.5t-12.5 -30.5q4 -39 42 -59q23 -12 66 -19q90 -24 124 -58
q42 -41 42 -128v-20q0 -147 -160 -170v-66h-150v66q-101 14 -154 60z" />
    <glyph glyph-name="percent" unicode="%" horiz-adv-x="706" 
d="M4 582q0 45 42 69q35 19 84 19q132 0 132 -94v-162q0 -90 -126 -90q-43 0 -79 15q-53 22 -53 69v174zM148 426v130q0 14 -1 17q-3 9 -11 9q-12 0 -12 -26v-130q0 -18 12 -18t12 18zM434 80v160q0 45 42 70q36 20 84 20q130 0 130 -96v-154q0 -90 -124 -90q-52 0 -87 19
q-45 24 -45 71zM578 84v132q0 24 -12 24q-6 0 -9 -4.5t-3 -19.5v-132q0 -16 12 -16t12 16zM164 2l240 656h132l-240 -656h-132z" />
    <glyph glyph-name="ampersand" unicode="&#x26;" horiz-adv-x="564" 
d="M106 348q-45 8 -68 50q-21 38 -18 76l2 28q6 77 77 121q67 41 147 37l38 -2q70 -4 121 -18q63 -19 101 -46v-126h-204q0 26 -5 36q-7 16 -29 16q-42 0 -42 -64q0 -56 58 -56l18 2v30h204v-30h24v-126h-24v-274h-330q-160 0 -160 178q0 53 11 84q20 56 79 84zM302 138v138
h-34q-42 0 -42 -72q0 -66 42 -66h34z" />
    <glyph glyph-name="quotesingle" unicode="'" horiz-adv-x="276" 
d="M124 514q-31 0 -52.5 21.5t-21.5 52.5t21.5 50.5t52.5 19.5q40 0 64 -23t24 -63q0 -33 -14 -64q-37 -63 -90 -94l-36 30q25 25 33 35q16 20 19 35z" />
    <glyph glyph-name="parenleft" unicode="(" horiz-adv-x="380" 
d="M272 594q-84 -187 -84 -336v-38q0 -140 84 -308l-78 -60q-41 41 -84 108q-44 71 -59 123q-29 99 -29 177q0 140 100 293q34 52 72 93z" />
    <glyph glyph-name="parenright" unicode=")" horiz-adv-x="380" 
d="M50 594l78 52q40 -38 72.5 -86t47.5 -80q54 -112 54 -220q0 -87 -42 -204q-16 -43 -50 -100q-44 -72 -82 -110l-84 66q92 151 92 338q0 186 -86 344z" />
    <glyph glyph-name="asterisk" unicode="*" horiz-adv-x="420" 
d="M22 496l30 80l108 -38l-6 114h90l-6 -114l112 38l32 -80l-114 -34l70 -92l-70 -52l-66 96l-66 -96l-72 52l66 92z" />
    <glyph glyph-name="plus" unicode="+" horiz-adv-x="604" 
d="M236 316v188h118v-188h198v-118h-198v-198h-118v198h-188v118h188z" />
    <glyph glyph-name="comma" unicode="," horiz-adv-x="276" 
d="M120 2q-34 0 -57 23t-23 57t23 57t57 23q47 0 74.5 -27.5t27.5 -74.5q0 -28 -12 -58q-46 -75 -102 -114l-42 36q27 27 33 35q16 20 21 43z" />
    <glyph glyph-name="hyphen" unicode="-" horiz-adv-x="276" 
d="M0 336h256v-156h-256v156z" />
    <glyph glyph-name="hyphen" unicode="&#x2010;" horiz-adv-x="276" 
d="M0 336h256v-156h-256v156z" />
    <glyph glyph-name="period" unicode="." horiz-adv-x="276" 
d="M36 80q0 37 25.5 62.5t62.5 25.5q40 0 66 -24t26 -64q0 -39 -26.5 -64.5t-65.5 -25.5q-38 0 -63 25.5t-25 64.5z" />
    <glyph glyph-name="slash" unicode="/" horiz-adv-x="482" 
d="M244 646h150l-252 -810h-150z" />
    <glyph glyph-name="zero" unicode="0" horiz-adv-x="542" 
d="M12 200v262q0 113 72 162q60 40 178 40q240 0 240 -196v-274q0 -204 -240 -204q-250 0 -250 210zM298 200v268q0 52 -42 52q-25 0 -34 -14q-6 -10 -6 -38v-274q0 -62 40 -62q27 0 36 22q6 14 6 46z" />
    <glyph glyph-name="one" unicode="1" horiz-adv-x="358" 
d="M40 652h228v-484q0 -36 22 -48v-118h-250v118q24 12 24 48v316q0 42 -24 48v120z" />
    <glyph glyph-name="two" unicode="2" horiz-adv-x="564" 
d="M226 420h-198v168q81 68 252 68q13 0 47 -2l35 -2q71 -7 116 -67q42 -55 42 -129q0 -110 -86 -168q-20 -14 -58 -32l-108 -52q-48 -16 -48 -72l18 -2q41 0 58.5 16.5t17.5 57.5h192v-202h-484v166q0 105 96 162q13 8 110 55q62 30 74 47q12 12 12 36q0 52 -40 52
q-48 0 -48 -58v-42z" />
    <glyph glyph-name="three" unicode="3" horiz-adv-x="542" 
d="M24 594q40 33 110 53q63 17 122 17q246 0 246 -174q0 -60 -14 -89q-18 -37 -70 -53q52 -26 72 -69q18 -37 18 -99q0 -190 -246 -190q-60 0 -125 18q-70 20 -113 54v178h192v-54q0 -52 38 -52l20 4q28 16 28 60q0 32 -18.5 55t-49.5 23h-80v126h62q82 0 82 60v18
q-7 44 -44 44q-17 0 -27.5 -13.5t-10.5 -30.5v-42h-192v156z" />
    <glyph glyph-name="four" unicode="4" horiz-adv-x="542" 
d="M0 312l228 340h232v-358h42v-138h-42q0 -25 24 -42v-112h-262v106q34 19 34 48h-256v156zM256 294v132l-90 -132h90z" />
    <glyph glyph-name="five" unicode="5" horiz-adv-x="522" 
d="M14 294v358h460v-172h-192q0 31 -22 37q-8 3 -50 3v-82q36 12 86 12q75 0 126 -31q62 -37 62 -107q0 -22 1 -34l5 -62q0 -116 -54 -171t-172 -55h-12q-140 0 -238 78v184h196v-58q0 -33 3 -42q7 -20 33 -20q36 5 36 44v100q0 18 -12 30t-30 12q-30 0 -30 -24h-196z" />
    <glyph glyph-name="six" unicode="6" horiz-adv-x="542" 
d="M18 204v264q0 106 58 153q53 43 164 43h18q58 0 122 -18q73 -19 110 -52v-144h-198v30q0 40 -36 40q-34 0 -34 -68v-50q38 24 96 24q25 0 52 -6q76 -17 107 -70q25 -43 25 -128q0 -120 -39 -168q-52 -64 -201 -64q-246 0 -246 196zM298 180v66q0 44 -38 44t-38 -44v-66
q0 -50 38 -50q18 0 29 17q9 14 9 33z" />
    <glyph glyph-name="seven" unicode="7" horiz-adv-x="522" 
d="M20 652h470v-126l-196 -524h-220l196 518q-35 0 -49 -6q-27 -12 -27 -46v-78h-174v262z" />
    <glyph glyph-name="eight" unicode="8" horiz-adv-x="564" 
d="M118 342q-84 33 -84 132v22q0 168 246 168q101 0 164 -36q80 -45 80 -138v-16q0 -91 -78 -132q90 -38 90 -148v-16q0 -109 -78 -154q-59 -34 -178 -34q-258 0 -258 192v12q0 120 96 148zM320 468q0 52 -40 52q-42 0 -42 -58q0 -66 42 -66q40 0 40 72zM320 210
q0 72 -40 72q-27 0 -37 -27q-5 -14 -5 -45q0 -39 5 -55q9 -29 37 -29q40 0 40 84z" />
    <glyph glyph-name="nine" unicode="9" horiz-adv-x="542" 
d="M30 200h186l6 -38q8 -30 40 -30q42 0 42 114q-66 -23 -108 -20l-30 2q-148 10 -148 174v78q0 190 238 190q126 0 182 -42q64 -49 64 -172v-270q0 -196 -234 -196q-154 0 -238 66v144zM298 402v72q0 48 -38 48t-38 -48v-72q0 -50 38 -50q18 0 29 17q9 14 9 33z" />
    <glyph glyph-name="colon" unicode=":" horiz-adv-x="276" 
d="M36 354q0 38 25 64t63 26q41 0 66.5 -24.5t25.5 -65.5q0 -39 -26.5 -64.5t-65.5 -25.5q-38 0 -63 25.5t-25 64.5zM36 80q0 37 25.5 62.5t62.5 25.5q40 0 66 -24t26 -64q0 -39 -26.5 -64.5t-65.5 -25.5q-38 0 -63 25.5t-25 64.5z" />
    <glyph glyph-name="semicolon" unicode=";" horiz-adv-x="276" 
d="M42 354q0 38 25 64t63 26q41 0 66.5 -24.5t25.5 -65.5q0 -39 -26.5 -64.5t-65.5 -25.5q-38 0 -63 25.5t-25 64.5zM120 2q-34 0 -57 23t-23 57t23 57t57 23q47 0 74.5 -27.5t27.5 -74.5q0 -28 -12 -58q-46 -75 -102 -114l-42 36q27 27 33 35q16 20 21 43z" />
    <glyph glyph-name="less" unicode="&#x3c;" horiz-adv-x="604" 
d="M48 308l504 212v-126l-346 -142l346 -150v-126l-504 222v110z" />
    <glyph glyph-name="equal" unicode="=" horiz-adv-x="584" 
d="M40 418h504v-126h-504v126zM40 220h504v-126h-504v126z" />
    <glyph glyph-name="greater" unicode="&#x3e;" horiz-adv-x="604" 
d="M552 308v-110l-504 -222v126l346 150l-346 142v126z" />
    <glyph glyph-name="question" unicode="?" horiz-adv-x="542" 
d="M24 594q61 36 101 50q59 20 143 20q85 0 146 -35q88 -51 88 -139v-16q0 -69 -34 -115q-21 -29 -68 -59l-57 -29q-35 -25 -35 -65l2 -6h-180v94q0 33 25 59q11 12 113 73q12 5 20 22t8 32q0 33 -28 40l-12 2q-40 0 -40 -48v-48h-192v168zM142 80q0 36 25 59t61 23
q38 0 63 -22.5t25 -59.5q0 -38 -25 -64t-63 -26q-40 0 -63 25t-23 65z" />
    <glyph glyph-name="at" unicode="@" horiz-adv-x="768" 
d="M696 380q0 -96 -82 -162q-72 -58 -150 -58q-62 0 -78 44q-32 -20 -41 -23q-20 -7 -43 -7q-96 0 -96 94q0 75 84 92l88 28v16q0 25 -16 28h-6q-22 0 -22 -44h-112v82q50 38 148 38q53 0 89 -21q43 -25 43 -75v-128q0 -8 -0.5 -11t-1.5 -5l6 -4q41 0 65 35q21 31 21 73
q0 53 -32 101t-80 68.5t-104 20.5h-20q-98 0 -172 -72t-74 -170l2 -8q0 -97 73.5 -167.5t170.5 -70.5q84 0 148 46l64 -70q-88 -66 -196 -66h-10q-145 0 -245.5 98t-100.5 242q0 153 112 249q100 85 228 85q129 0 221 -58q119 -75 119 -220zM378 276v38l-24 -8
q-24 -10 -24 -26q0 -20 16 -20q21 0 32 16z" />
    <glyph glyph-name="A" unicode="A" horiz-adv-x="556" 
d="M410 652l90 -472q9 -47 36 -66v-112h-256v112q22 18 22 60h-100q0 -42 24 -60v-112h-222v118q22 22 30 66l84 466h292zM280 300l-30 190l-30 -190h60z" />
    <glyph glyph-name="B" unicode="B" horiz-adv-x="604" 
d="M32 652h250q132 0 183 -22q79 -34 79 -140q0 -131 -106 -148q58 -8 88 -49t30 -101v-18q0 -172 -220 -172h-304v118q30 12 30 66v270q0 32 -3 43q-6 23 -27 27v126zM258 514v-118q42 0 56 4q28 10 28 42v14q-4 37 -26 49q-17 9 -58 9zM258 276v-138q43 0 60 9
q24 13 24 51v18q-4 35 -16.5 47.5t-47.5 12.5h-20z" />
    <glyph glyph-name="C" unicode="C" horiz-adv-x="542" 
d="M298 414v70q0 16 -9.5 28t-24.5 12q-36 0 -36 -50v-300q0 -17 9.5 -31.5t26.5 -14.5q34 0 34 46v102h204v-208q-24 -39 -110 -58q-62 -14 -130 -14q-244 0 -244 198v268q0 107 58 157q54 45 164 45q152 0 262 -64v-186h-204z" />
    <glyph glyph-name="D" unicode="D" horiz-adv-x="564" 
d="M16 652h304q216 0 216 -190v-258q0 -202 -210 -202h-310v118q20 8 26 24q4 10 4 36v300q0 45 -30 52v120zM256 508v-370l18 -2q52 0 52 58v268q0 31 -21 40q-13 6 -49 6z" />
    <glyph glyph-name="E" unicode="E" horiz-adv-x="542" 
d="M24 652h490v-226h-192v42q0 40 -54 40h-18v-118h132v-126h-132v-126l16 -2q56 0 56 50v48h192v-232h-490v118q18 10 18 36v328q0 36 -18 54v114z" />
    <glyph glyph-name="F" unicode="F" horiz-adv-x="522" 
d="M26 652h476v-226h-178v42q0 36 -31 41l-35 5v-124h126v-126h-126v-84q0 -42 18 -60v-118h-244v118q24 16 24 54v310q0 38 -30 48v120z" />
    <glyph glyph-name="G" unicode="G" horiz-adv-x="542" 
d="M18 204v270q0 184 224 184h38q99 0 216 -70v-162h-198v42q0 54 -36 54q-20 0 -31 -21q-9 -17 -9 -39v-282q0 -50 38 -50t38 44v66h-30v124h228v-308q-24 -29 -107 -49q-70 -17 -121 -17h-28q-115 0 -168.5 49.5t-53.5 164.5z" />
    <glyph glyph-name="H" unicode="H" horiz-adv-x="604" 
d="M26 652h244v-114q-18 -18 -18 -64v-72h72v98q0 23 -18 38v114h250v-114q-29 -29 -26 -62l2 -26v-256q0 -62 24 -80v-112h-250v112q18 12 18 54v108h-72v-90q0 -54 18 -72v-112h-244v112q24 20 24 62v292q0 52 -24 70v114z" />
    <glyph glyph-name="I" unicode="I" horiz-adv-x="318" 
d="M22 652h256v-114q-24 -18 -24 -64v-288q0 -29 3 -40q4 -15 21 -32v-112h-256v112q22 19 22 54v324q0 33 -22 46v114z" />
    <glyph glyph-name="J" unicode="J" horiz-adv-x="338" 
d="M54 652h244v-114q-14 -14 -17 -29q-1 -7 -1 -35v-304q0 -104 -64 -150q-45 -32 -132 -32q-55 0 -90 14v118l16 -2q62 0 62 82v288q0 35 -18 50v114z" />
    <glyph glyph-name="K" unicode="K" horiz-adv-x="604" 
d="M32 652h244v-120q-18 -18 -18 -70v-72l54 84q24 37 24 76v102h220v-120q-15 -6 -27 -20q-5 -6 -39 -62l-58 -96l88 -180q13 -28 19 -36q13 -20 29 -24v-112h-232v82q0 33 -18 78l-60 114v-90q0 -54 18 -72v-112h-244v112q24 9 24 68v274q0 64 -24 76v120z" />
    <glyph glyph-name="L" unicode="L" horiz-adv-x="542" 
d="M24 652h244v-120q-24 -9 -24 -52v-342q37 0 51.5 12.5t14.5 49.5v118h186v-316h-478v112q24 9 24 44v338q0 28 -18 36v120z" />
    <glyph glyph-name="M" unicode="M" horiz-adv-x="726" 
d="M34 652h262l64 -250l68 250h250v-114q-20 -15 -23 -43q-1 -5 -1 -51v-250q0 -34 1 -42q5 -23 23 -32v-118h-244v118q22 8 22 44v184l-90 -346h-58l-90 340v-148q0 -32 2 -42q4 -23 22 -32v-118h-208v118q22 5 22 36v340q0 34 -22 42v114z" />
    <glyph glyph-name="N" unicode="N" horiz-adv-x="604" 
d="M32 652h220l112 -292v136q0 28 -16 42v114h208v-114q-24 -18 -24 -64v-472h-196l-126 292v-100q0 -56 24 -68v-124h-202v118q24 15 24 50v320q0 33 -24 48v114z" />
    <glyph glyph-name="O" unicode="O" horiz-adv-x="564" 
d="M28 200v268q0 196 252 196q115 0 171 -37q67 -45 67 -153v-294q0 -107 -67 -153q-56 -37 -171 -37q-121 0 -181 44q-71 51 -71 166zM314 194v274q0 26 -1 31q-4 21 -33 21q-42 0 -42 -52v-274q0 -62 42 -62q34 0 34 62z" />
    <glyph glyph-name="P" unicode="P" horiz-adv-x="564" 
d="M28 652h304q89 0 146 -43q64 -49 64 -135v-110q0 -178 -198 -178h-82l-2 -32q-1 -22 20 -34v-118h-252v118q24 9 24 46v318q0 36 -24 42v126zM262 508v-184l18 -2q52 0 52 54v74q0 35 -18 48q-14 10 -52 10z" />
    <glyph glyph-name="Q" unicode="Q" horiz-adv-x="542" 
d="M18 186v264q0 114 63 164q57 44 175 44q252 0 252 -190v-282q0 -79 -42 -124l42 -36l-66 -120q-89 33 -150 84l-30 -2q-33 -2 -90 8q-44 9 -70 24q-84 50 -84 166zM222 456v-256q0 -34 5 -46q8 -22 35 -22q36 0 36 44v280q0 30 -6 42q-9 16 -36 16q-34 0 -34 -58z" />
    <glyph glyph-name="R" unicode="R" horiz-adv-x="604" 
d="M26 652h298q214 0 214 -172q0 -64 -18 -97q-21 -40 -76 -59q82 -14 82 -102v-48q0 -48 24 -60v-112h-220q-12 36 -12 136v62q0 31 -21 44q-11 7 -45 14v-78q0 -60 24 -66v-112h-250v112q24 18 24 80v290q0 35 -24 42v126zM252 514v-130l16 -2q62 0 62 56v12
q-4 41 -19.5 52.5t-58.5 11.5z" />
    <glyph glyph-name="S" unicode="S" horiz-adv-x="564" 
d="M28 234h204v-40q0 -58 36 -58l12 2q28 5 28 62q0 40 -72 62l-112 32q-59 24 -83 71q-19 40 -19 109q0 184 220 184h20q121 0 232 -64v-156h-192v36q0 46 -34 46q-30 0 -36 -30l-2 -10q0 -39 52 -58l109 -28q61 -18 95 -65t34 -115q0 -45 -14 -94q-22 -77 -103 -109
q-54 -21 -147 -21q-54 0 -120 18q-88 24 -108 60v166z" />
    <glyph glyph-name="T" unicode="T" horiz-adv-x="604" 
d="M8 652h560v-292h-148v114q0 29 -30 34v-322q0 -59 24 -66v-118h-252v112q24 9 24 50v344q-30 0 -30 -40v-108h-148v292z" />
    <glyph glyph-name="U" unicode="U" horiz-adv-x="564" 
d="M16 652h252v-120q-24 -12 -24 -70v-252q0 -40 1 -46q5 -32 39 -32q36 0 36 50v298q0 43 -24 52v120h246v-120q-30 -18 -30 -88v-244q0 -72 -21 -115q-25 -50 -87 -77q-46 -20 -124 -20q-86 0 -132 20q-108 47 -108 170v300q0 40 -24 54v120z" />
    <glyph glyph-name="V" unicode="V" horiz-adv-x="542" 
d="M0 652h256v-120q-22 -8 -22 -36q0 -7 3 -20t3 -20l40 -252l36 252q0 7 2 20t2 20q0 12 -1 15q-5 16 -21 21v120h226v-120q-19 -22 -28 -70l-90 -460h-282l-88 436q-15 73 -36 94v120z" />
    <glyph glyph-name="W" unicode="W" horiz-adv-x="768" 
d="M-2 652h252v-114q-22 -12 -20 -42l2 -28l24 -162l64 346h126l72 -346l24 174q0 46 -24 58v114h220v-114q-19 -19 -30 -76l-88 -460h-198l-54 310l-60 -310h-196l-78 460q-6 37 -36 76v114z" />
    <glyph glyph-name="X" unicode="X" horiz-adv-x="542" 
d="M6 652h238v-70q0 -38 30 -86q30 51 30 86v70h210v-114q-32 -32 -36 -42l-96 -148l96 -180l36 -54v-112h-246v78q0 50 -34 106q-36 -63 -36 -106v-78h-204v112q32 24 48 72l94 162l-76 120q-38 61 -54 70v114z" />
    <glyph glyph-name="Y" unicode="Y" horiz-adv-x="542" 
d="M0 652h234v-90q0 -48 34 -112q36 50 36 112v90h210v-114q-33 -33 -48 -64l-108 -222v-84q0 -37 24 -54v-112h-252v112q24 18 24 54v78l-100 204l-22 50q-17 34 -32 38v114z" />
    <glyph glyph-name="Z" unicode="Z" horiz-adv-x="564" 
d="M22 652h496v-114l-256 -400l18 -2q47 0 67.5 15t20.5 59v66h156v-274h-502v118l246 394q-44 0 -63 -6q-35 -11 -35 -46v-66h-148v256z" />
    <glyph glyph-name="bracketleft" unicode="[" horiz-adv-x="338" 
d="M18 658h280v-120h-100v-560h100v-120h-280v800z" />
    <glyph glyph-name="backslash" unicode="\" horiz-adv-x="482" 
d="M136 646l18 -52l234 -758h-150l-22 70l-230 740h150z" />
    <glyph glyph-name="bracketright" unicode="]" horiz-adv-x="338" 
d="M18 658h280v-800h-280v120h102v560h-102v120z" />
    <glyph glyph-name="asciicircum" unicode="^" horiz-adv-x="574" 
d="M284 568l-126 -284l-110 48l180 378h118l182 -378l-102 -48z" />
    <glyph glyph-name="underscore" unicode="_" horiz-adv-x="400" 
d="M2 2h382v-162h-382v162z" />
    <glyph glyph-name="grave" unicode="`" horiz-adv-x="276" 
d="M42 664h130l44 -126h-92z" />
    <glyph glyph-name="a" unicode="a" horiz-adv-x="502" 
d="M34 432q77 58 220 58q80 0 132 -30q64 -38 64 -112v-192q0 -20 7.5 -30t16.5 -18v-106h-196v36l-47 -30q-35 -18 -79 -18q-67 0 -104.5 37t-37.5 105q0 54 36 91q33 35 88 47l132 42v24q0 40 -24 40h-8q-34 0 -34 -64h-166v120zM266 144v56q-25 -6 -36 -11
q-36 -16 -36 -39q0 -30 24 -30q11 0 26.5 8t21.5 16z" />
    <glyph glyph-name="b" unicode="b" horiz-adv-x="502" 
d="M10 652h208v-190q44 22 106 22h18q120 0 120 -136v-198q0 -160 -202 -160q-72 0 -119 13q-52 15 -107 53v428q0 46 -24 54v114zM218 126q3 0 14.5 -4t17.5 -4q34 0 34 62v126q0 46 -32 46q-14 0 -34 -10v-216z" />
    <glyph glyph-name="c" unicode="c" horiz-adv-x="482" 
d="M22 150v174q0 95 56 131q45 29 148 29q159 0 208 -58v-126h-166v30q0 25 -3 32q-6 14 -27 14q-36 0 -36 -58v-150q0 -34 2 -42q5 -24 28 -24q36 0 36 60v42h166v-148q-32 -32 -93 -50q-52 -16 -105 -16h-22q-192 0 -192 160z" />
    <glyph glyph-name="d" unicode="d" horiz-adv-x="502" 
d="M16 144v198q0 142 124 142h12q60 0 108 -28v28q0 45 -18 54v114h198v-458q0 -38 1 -47q4 -29 21 -39v-106h-202v18q-30 -30 -120 -30q-62 0 -94 37t-32 101zM260 132v210q-14 8 -36 8q-30 0 -30 -50v-96q0 -80 36 -80q20 6 30 8z" />
    <glyph glyph-name="e" unicode="e" horiz-adv-x="482" 
d="M16 150v180q0 97 63 133q47 27 153 27q208 0 208 -136v-150h-244v-48q0 -48 30 -48q12 0 21 9t9 21v42h184v-124q-29 -29 -104 -49q-65 -17 -116 -17q-204 0 -204 160zM196 312h72q0 31 -4 43q-8 21 -32 21q-36 0 -36 -64z" />
    <glyph glyph-name="f" unicode="f" horiz-adv-x="298" 
d="M4 370v110h24v40q0 62 28 100q32 44 92 44q81 0 126 -12v-108q-66 0 -66 -64h54v-110h-54v-196q0 -28 2 -38q5 -19 22 -28v-106h-228v106q24 12 24 60v202h-24z" />
    <glyph glyph-name="g" unicode="g" horiz-adv-x="522" 
d="M26 126v192q0 84 23 119q31 47 113 47q79 0 114 -34v30h204v-110q-24 -13 -24 -52v-334q0 -106 -48 -145q-43 -35 -150 -35h-18q-48 0 -107 15q-68 18 -95 45v114h172q0 -29 2 -37q6 -17 28 -17q36 0 36 38v64q-47 -36 -108 -36q-66 0 -104 35t-38 101zM276 132v216
q-12 6 -30 6q-36 0 -36 -48v-106q0 -35 3 -48q7 -28 31 -28q-8 0 32 8z" />
    <glyph glyph-name="h" unicode="h" horiz-adv-x="542" 
d="M24 652h210v-184q29 22 86 22q65 0 108 -29q50 -34 50 -97v-184q0 -30 2 -39q4 -23 22 -27v-112h-198q-12 84 -12 142v162q0 54 -36 54q-14 -4 -22 -6v-192q0 -42 16 -48v-112h-226v112q24 12 24 54v312q0 46 -24 52v120z" />
    <glyph glyph-name="i" unicode="i" horiz-adv-x="276" 
d="M18 480h204v-312q0 -54 22 -54v-112h-226v106q18 10 18 34v176q0 31 -18 46v116zM24 588q0 37 33 58q28 18 67 18q40 0 67 -18q31 -20 31 -58q0 -41 -32 -62q-27 -18 -70 -18q-38 0 -65 21q-31 23 -31 59z" />
    <glyph glyph-name="j" unicode="j" horiz-adv-x="276" 
d="M24 480h204v-518q0 -117 -100 -139q-26 -5 -54 -5q-47 0 -86 18v106h16q30 0 39 26q5 15 5 52v286q0 47 -24 58v116zM30 594q0 34 32 53q26 17 62 17q96 0 104 -70v-12q0 -38 -35 -58q-29 -16 -69 -16q-41 0 -67.5 22.5t-26.5 63.5z" />
    <glyph glyph-name="k" unicode="k" horiz-adv-x="522" 
d="M14 652h208v-304q36 32 47 58q7 16 7 44v30h204v-104q-12 -4 -24 -16l-18 -18l-48 -66l60 -126q6 -18 34 -36v-112h-166l-96 208v-54q0 -26 24 -42v-112h-232v112q24 12 24 60v306q0 53 -24 64v108z" />
    <glyph glyph-name="l" unicode="l" horiz-adv-x="276" 
d="M18 652h204v-472q0 -34 1 -40q4 -22 21 -32v-106h-226v106q24 12 24 60v312q0 52 -24 58v114z" />
    <glyph glyph-name="m" unicode="m" horiz-adv-x="768" 
d="M16 480h204v-24q51 40 112 40q39 0 61 -9t47 -37q34 23 57 32q35 14 75 14q136 0 136 -132v-190q0 -58 24 -66v-106h-196q-6 58 -6 118v188q0 50 -38 50l-28 -4v-192q0 -38 24 -54v-106h-198q-6 58 -6 118v180q0 26 -4 37q-8 23 -32 23q-7 0 -28 -6v-192q0 -46 24 -54
v-106h-228v106q24 18 24 60v132q0 59 -30 64z" />
    <glyph glyph-name="n" unicode="n" horiz-adv-x="542" 
d="M18 480h210v-18q40 28 118 28q132 0 132 -126v-190q0 -50 24 -66v-106h-204q0 49 -2 79q-4 59 -4 69v150q0 21 -9 36q-12 18 -31 18q-12 0 -24 -6v-180q0 -37 22 -54v-112h-232v112q24 12 24 60v144q0 40 -24 46v116z" />
    <glyph glyph-name="o" unicode="o" horiz-adv-x="482" 
d="M10 168v168q0 96 63 130q46 24 153 24q110 0 153 -23q61 -33 61 -131v-180q0 -100 -60 -135q-44 -25 -154 -25q-112 0 -157 29q-59 38 -59 143zM262 156v186q0 40 -36 40t-36 -46v-180q0 -48 36 -48t36 48z" />
    <glyph glyph-name="p" unicode="p" horiz-adv-x="522" 
d="M20 480h202v-24q57 34 120 34q132 0 132 -120v-214q0 -60 -14 -91q-26 -57 -100 -69l-32 -2q-60 -4 -106 32q0 -72 24 -78v-118h-226v118q24 12 24 60v298q0 56 -24 64v110zM222 348v-216l18 -5q10 -3 16 -3q38 0 38 56v126q0 50 -36 50q-18 0 -36 -8z" />
    <glyph glyph-name="q" unicode="q" horiz-adv-x="502" 
d="M16 138v226q0 126 136 126q80 0 114 -34v24h174v-490q0 -25 1 -30q4 -13 21 -18v-112h-220v112q28 22 26 58l-2 32q-42 -42 -114 -42q-136 0 -136 148zM266 126v222q-20 10 -36 10q-36 0 -36 -46v-138q0 -22 12 -38t34 -16q11 0 26 6z" />
    <glyph glyph-name="r" unicode="r" horiz-adv-x="338" 
d="M12 480h198v-30q14 19 25 27q20 15 47 15q20 0 28 -2v-172q-8 2 -26 2q-30 0 -52 -16.5t-22 -45.5v-90q0 -50 30 -60v-106h-228v106q24 18 24 60v150q0 33 -24 52v110z" />
    <glyph glyph-name="s" unicode="s" horiz-adv-x="482" 
d="M22 186h174v-36q0 -17 10.5 -29.5t27.5 -12.5q34 0 34 32v10q-7 32 -78 48q-97 22 -102 24q-78 33 -78 120q0 39 21.5 77.5t56.5 54.5q47 22 128 22q55 0 113 -16q72 -20 99 -54v-114h-166v30q0 17 -11.5 28.5t-28.5 11.5q-32 0 -32 -28q0 -29 31 -41q17 -7 47 -13
q78 -16 103 -29q57 -30 69 -97q2 -11 2 -34q0 -77 -68 -115q-54 -31 -138 -31q-42 0 -107 14q-25 4 -58 20q-38 18 -49 34v124z" />
    <glyph glyph-name="t" unicode="t" horiz-adv-x="298" 
d="M-2 370v110h24v96l186 46v-142h60v-110h-60v-190q0 -66 60 -66v-106q-42 -12 -120 -12q-58 0 -92 33t-34 91v250h-24z" />
    <glyph glyph-name="u" unicode="u" horiz-adv-x="522" 
d="M8 480h192q16 -19 16 -60v-204q0 -94 32 -94q11 0 28 10v198q0 31 -24 46v104h210v-312q0 -43 22 -60v-106h-208v24q-30 -30 -108 -30q-77 0 -108 36q-28 33 -28 112v180q0 36 -24 52v104z" />
    <glyph glyph-name="v" unicode="v" horiz-adv-x="482" 
d="M-2 480h222v-110q-16 -6 -16 -28q0 -16 16 -78l18 -70l30 118l6 34q0 16 -18 24v110h202v-110q-18 -6 -30 -46l-96 -322h-214l-90 310l-10 34q-8 17 -20 24v110z" />
    <glyph glyph-name="w" unicode="w" horiz-adv-x="706" 
d="M-2 480h234v-110l-12 -14q-6 -7 -6 -20q0 -6 6 -36l12 -60l64 240h120l66 -240l18 66q8 48 8 40q0 21 -20 24v110h196v-116q-16 -7 -27 -37q-9 -23 -37 -127l-54 -198h-178l-44 178l-54 -178h-172l-72 268q-24 90 -48 100v110z" />
    <glyph glyph-name="x" unicode="x" horiz-adv-x="482" 
d="M4 480h210v-36q0 -49 24 -80q30 33 30 80v36h184v-110q-32 -17 -52 -52l-62 -72l66 -90q17 -23 21 -28q14 -16 27 -20v-106h-208v36q0 31 -7 48.5t-29 39.5q-21 -24 -26.5 -41.5t-5.5 -52.5v-30h-172v106q23 8 66 66l54 72l-42 54q-22 29 -34 39q-22 21 -44 25v116z" />
    <glyph glyph-name="y" unicode="y" horiz-adv-x="482" 
d="M-2 480h240v-110q-20 0 -20 -22q0 -13 5 -29q9 -29 9 -31l24 -78l18 78q3 20 10 60q0 22 -16 22v110h202v-110q-15 -10 -42 -94l-96 -298q-23 -70 -31 -85q-22 -39 -69 -57q-31 -12 -70 -12q-43 0 -86 16v108q61 0 72 48l-90 250l-21.5 66.5t-38.5 57.5v110z" />
    <glyph glyph-name="z" unicode="z" horiz-adv-x="482" 
d="M10 480h436v-110l-208 -256h36q34 0 34 42v30h138v-184h-436v112l204 250h-38q-28 0 -28 -34v-30h-138v180z" />
    <glyph glyph-name="braceleft" unicode="{" horiz-adv-x="338" 
d="M24 252q66 15 66 84v190q0 72 40 98.5t126 23.5l66 -2q-66 -25 -66 -126v-166q0 -47 -13 -69q-16 -27 -59 -33q72 -20 72 -114v-202q0 -27 19.5 -49t46.5 -29h-60q-82 0 -116 13q-56 22 -56 89v208q0 37 -17 55q-12 13 -49 29z" />
    <glyph glyph-name="bar" unicode="|" horiz-adv-x="288" 
d="M80 710h118v-710h-118v710z" />
    <glyph glyph-name="braceright" unicode="}" horiz-adv-x="338" 
d="M124 252q-70 26 -70 112v196q0 62 -60 86q28 6 100 6h14q114 -13 114 -92v-200q0 -83 64 -108q-38 -15 -51 -37t-13 -65v-172q0 -47 -10 -67q-12 -24 -52 -41q-28 -12 -74 -12q-15 0 -46 3t-46 3q32 5 48 42q12 29 12 66v160q0 102 70 120z" />
    <glyph glyph-name="asciitilde" unicode="~" horiz-adv-x="604" 
d="M552 284q-66 -118 -150 -118q-28 0 -76 23q-13 5 -48 21q-49 22 -72 22q-49 0 -96 -74l-62 70q61 124 152 124q27 0 57 -9q15 -5 51 -19q31 -16 50 -25q27 -13 44 -13q49 0 86 76z" />
    <glyph glyph-name="dagger" unicode="&#x2020;" horiz-adv-x="542" 
d="M146 292q46 84 46 184q-38 0 -99 -25q-32 -13 -43 -13q-20 0 -36 11t-16 31v4q0 23 15.5 36.5t38.5 13.5h6q18 -3 61 -21q36 -15 71 -15v30q0 18 -4 57q-2 12 -13 37q-13 29 -17 42l-2 12q0 20 15 35t35 15h14q34 -8 34 -50q0 -16 -6 -30q-20 -45 -25 -70.5t-5 -75.5
l10 -2q25 0 49 9q70 26 75 27h8q22 0 37 -14t15 -36t-16 -35t-38 -13l-4 2q-19 0 -48 16t-58 19l-30 3q0 -107 46 -184q-42 -181 -42 -432h-28q0 227 -46 432z" />
    <glyph glyph-name="cent" unicode="&#xa2;" horiz-adv-x="482" 
d="M154 2v78q-62 0 -98 44q-34 40 -34 104v216q0 54 48 86q24 16 90 38v84h154v-84q70 -21 120 -60v-132h-172v50q0 30 -28 30q-12 0 -22 -9t-10 -21v-180q0 -58 32 -58q12 0 20 14t8 26v54h172v-144q-14 -23 -57 -41q-39 -17 -69 -17v-78h-154z" />
    <glyph glyph-name="sterling" unicode="&#xa3;" horiz-adv-x="564" 
d="M28 2v118q24 9 24 48v84h-18v124h18v56q0 110 55 172t163 62q60 0 133 -20q83 -23 121 -58v-180h-186v66q0 40 -36 40q-17 0 -28.5 -11.5t-11.5 -28.5v-98h132v-124h-132v-114l14 -2q19 0 40.5 10.5t21.5 27.5v42h186v-214h-496z" />
    <glyph glyph-name="section" unicode="&#xa7;" horiz-adv-x="482" 
d="M218 390q-28 0 -28 -26q0 -25 20 -37q10 -6 42 -15q16 14 16 28v10q-9 27 -50 40zM408 252q31 -39 34 -84v-18q0 -77 -68 -115q-54 -31 -138 -31q-42 0 -107 14q-25 4 -58 20q-38 18 -49 34v124h174v-36q0 -17 10.5 -29.5t27.5 -12.5q34 0 34 32v10q-7 32 -78 48
q-97 22 -102 24q-78 33 -78 120q0 57 36 96q-36 32 -36 94q0 39 21.5 77.5t56.5 54.5q47 22 128 22q55 0 113 -16q72 -20 99 -54v-114h-166v30q0 17 -11.5 28.5t-28.5 11.5q-32 0 -32 -28q0 -29 31 -41q17 -7 47 -13q78 -16 103 -29q57 -30 69 -97q2 -11 2 -34
q0 -50 -34 -88z" />
    <glyph glyph-name="bullet" unicode="&#x2022;" horiz-adv-x="882" 
d="M449 616q103 0 169 -66t66 -169q0 -102 -66 -167.5t-169 -65.5q-101 0 -166.5 66t-65.5 167t65.5 168t166.5 67z" />
    <glyph glyph-name="paragraph" unicode="&#xb6;" horiz-adv-x="581" 
d="M246 363q-85 7 -140 63t-55 140q0 88 57 144t145 56h253v-70h-58v-680h-62v680h-69v-680h-71v347z" />
    <glyph glyph-name="germandbls" unicode="&#xdf;" 
 />
    <glyph glyph-name="acute" unicode="&#xb4;" 
 />
    <glyph glyph-name="dieresis" unicode="&#xa8;" horiz-adv-x="10" 
d="M-416 622l-2 10q0 24 20 38q17 12 42 12h10q27 0 44.5 -16.5t17.5 -43.5q0 -28 -20 -49t-48 -21q-30 0 -47 19.5t-17 50.5zM-248 622q0 60 64 60q28 0 48 -16t20 -44q0 -29 -17.5 -50.5t-46.5 -21.5q-30 0 -49 21t-19 51z" />
    <glyph glyph-name="AE" unicode="&#xc6;" horiz-adv-x="318" 
d="M22 652h256v-114q-24 -18 -24 -64v-288q0 -29 3 -40q4 -15 21 -32v-112h-256v112q22 19 22 54v324q0 33 -22 46v114zM30 820v20q5 42 38 64q30 20 74 20h16q103 0 112 -84v-8q0 -33 -18 -53q-8 -9 -36 -27q-38 -17 -38 -50l-56 -2v40q0 15 18 36l36 44v14q0 22 -22 22
h-18q-22 0 -22 -22v-14h-84z" />
    <glyph glyph-name="Oslash" unicode="&#xd8;" horiz-adv-x="10" 
d="M-428 853h135l47 -144h-86z" />
    <glyph glyph-name="yen" unicode="&#xa5;" horiz-adv-x="542" 
d="M12 652h232v-90q0 -45 36 -112q36 49 36 112v90h204v-120q-18 -18 -42 -64l-48 -92h94v-70h-130l-12 -24h142v-78h-160v-36q0 -38 24 -54v-112h-252v112q24 18 24 54v42h-154v78h130l-12 24h-118v72h90l-36 72l-20 41q-14 25 -28 35v120z" />
    <glyph glyph-name="ordfeminine" unicode="&#xaa;" horiz-adv-x="624" 
d="M99 596h440v-452h-440v452z" />
    <glyph glyph-name="ordmasculine" unicode="&#xba;" horiz-adv-x="664" 
d="M113 618h472v-489h-472v489zM157 576v-409h386v409h-386z" />
    <glyph glyph-name="ae" unicode="&#xe6;" horiz-adv-x="276" 
d="M12 484h204v-304q0 -60 24 -72v-106h-228v106q24 12 24 60v126q0 70 -24 76v114zM4 636v20q5 41 36 64q28 20 71 20h15q97 0 106 -84v-8q0 -33 -17 -53q-9 -10 -34 -27q-29 -13 -29 -52h-60v40q0 16 25.5 46.5t25.5 33.5v14q0 22 -21 22h-17q-21 0 -21 -22v-14h-80z" />
    <glyph glyph-name="oslash" unicode="&#xf8;" horiz-adv-x="10" 
d="M-383 681h134l43 -143h-88z" />
    <glyph glyph-name="questiondown" unicode="&#xbf;" 
 />
    <glyph glyph-name="exclamdown" unicode="&#xa1;" 
 />
    <glyph glyph-name="florin" unicode="&#x192;" 
 />
    <glyph glyph-name="guillemotleft" unicode="&#xab;" horiz-adv-x="420" 
d="M290 258l66 -120h-106l-68 126l68 126h106zM142 258l66 -120h-108l-66 126l66 126h108z" />
    <glyph glyph-name="guillemotright" unicode="&#xbb;" horiz-adv-x="420" 
d="M196 120l66 138l-66 126h106l66 -132l-66 -132h-106zM40 120l66 138l-66 126h108l66 -132l-66 -132h-108z" />
    <glyph glyph-name="ellipsis" unicode="&#x2026;" horiz-adv-x="736" 
d="M36 80q0 37 25.5 62.5t62.5 25.5q40 0 66 -24t26 -64q0 -39 -26.5 -64.5t-65.5 -25.5q-38 0 -63 25.5t-25 64.5zM266 80q0 37 25.5 62.5t62.5 25.5q40 0 66 -24t26 -64q0 -39 -26.5 -64.5t-65.5 -25.5q-38 0 -63 25.5t-25 64.5zM496 80q0 37 25.5 62.5t62.5 25.5
q40 0 66 -24t26 -64q0 -39 -26.5 -64.5t-65.5 -25.5q-38 0 -63 25.5t-25 64.5z" />
    <glyph glyph-name="OE" unicode="&#x152;" horiz-adv-x="10" 
d="M-400 809v20q5 41 36 64q28 20 71 20h15q97 0 106 -84v-8q0 -33 -17 -53q-9 -10 -34 -27q-26 -12 -26 -52h-63v40q0 13 21 41l30 39v14q0 22 -21 22h-17q-21 0 -21 -22v-14h-80z" />
    <glyph glyph-name="oe" unicode="&#x153;" horiz-adv-x="10" 
d="M-376 643v20q5 41 36 64q28 20 71 20h15q97 0 106 -84v-8q0 -33 -17 -53q-9 -10 -34 -27q-31 -15 -31 -44v-8h-58v40q0 13 21 41l30 39v14q0 22 -21 22h-17q-21 0 -21 -22v-14h-80z" />
    <glyph glyph-name="endash" unicode="&#x2013;" horiz-adv-x="548" 
d="M0 328h496v-158h-496v158z" />
    <glyph glyph-name="emdash" unicode="&#x2014;" horiz-adv-x="1072" 
d="M8 324h992v-158h-992v158z" />
    <glyph glyph-name="quotedblleft" unicode="&#x201c;" horiz-adv-x="472" 
d="M192 640q-34 -31 -56 -78q34 0 54 -22t20 -56q0 -31 -24 -50.5t-56 -19.5q-39 0 -61.5 26t-22.5 66q0 55 59 120q30 32 49 44zM392 640q-34 -31 -56 -78q34 0 54 -22t20 -56q0 -31 -24 -50.5t-56 -19.5q-39 0 -61.5 26t-22.5 66q0 55 59 120q30 32 49 44z" />
    <glyph glyph-name="quotedblright" unicode="&#x201d;" horiz-adv-x="472" 
d="M124 514q-31 0 -52.5 21.5t-21.5 52.5t21.5 50.5t52.5 19.5q40 0 64 -23t24 -63q0 -33 -14 -64q-37 -63 -90 -94l-36 30q25 25 33 35q16 20 19 35zM324 514q-31 0 -52.5 21.5t-21.5 52.5t21.5 50.5t52.5 19.5q40 0 64 -23t24 -63q0 -33 -14 -64q-37 -63 -90 -94l-36 30
q25 25 33 35q16 20 19 35z" />
    <glyph glyph-name="quoteleft" unicode="&#x2018;" horiz-adv-x="276" 
d="M192 640q-34 -31 -56 -78q34 0 54 -22t20 -56q0 -31 -24 -50.5t-56 -19.5q-39 0 -61.5 26t-22.5 66q0 55 59 120q30 32 49 44z" />
    <glyph glyph-name="quoteright" unicode="&#x2019;" horiz-adv-x="276" 
d="M124 514q-31 0 -52.5 21.5t-21.5 52.5t21.5 50.5t52.5 19.5q40 0 64 -23t24 -63q0 -33 -14 -64q-37 -63 -90 -94l-36 30q25 25 33 35q16 20 19 35z" />
    <glyph glyph-name="fraction" unicode="&#x2044;" 
 />
    <glyph glyph-name="currency" unicode="&#xa4;" horiz-adv-x="676" 
d="M198 552q68 42 144 42q77 0 146 -42l48 46l86 -86l-46 -54q38 -58 38 -148q0 -84 -46 -136l54 -48l-94 -86l-40 48q-60 -46 -150 -46q-103 0 -140 46l-56 -48l-86 86l54 48q-40 51 -40 144q0 105 48 140l-54 46l86 94zM346 434q-52 0 -85 -34t-33 -86q0 -47 28.5 -78.5
t75.5 -31.5l8 2q48 0 81 34t33 82t-30 80t-78 32z" />
    <glyph glyph-name="guilsinglleft" unicode="&#x2039;" horiz-adv-x="276" 
d="M142 258l66 -120h-108l-66 126l66 126h108z" />
    <glyph glyph-name="guilsinglright" unicode="&#x203a;" horiz-adv-x="276" 
d="M40 120l66 138l-66 126h108l66 -132l-66 -132h-108z" />
    <glyph glyph-name="fi" unicode="&#xf001;" 
 />
    <glyph glyph-name="fl" unicode="&#xf002;" 
 />
    <glyph glyph-name="daggerdbl" unicode="&#x2021;" horiz-adv-x="460" 
d="M146 302q46 84 46 184q-38 0 -99 -25q-32 -13 -43 -13q-20 0 -36 11t-16 31v4q0 23 15.5 36.5t38.5 13.5h6q18 -3 61 -21q36 -15 71 -15v30q0 18 -4 57q-2 12 -13 37q-13 29 -17 42l-2 12q0 20 15 35t35 15h14q34 -8 34 -50q0 -16 -6 -30q-20 -45 -25 -70.5t-5 -75.5
l10 -2q25 0 49 9q70 26 75 27h8q22 0 37 -14t15 -36t-16 -35t-38 -13l-4 2q-19 0 -48 16t-58 19l-30 3q0 -108 46 -186q-46 -84 -46 -168l2 -14q38 0 97 25q31 13 43 13q21 0 36.5 -12.5t15.5 -33.5q0 -22 -15 -37t-37 -15l-8 2q-8 1 -73 24q-28 10 -53 10h-6l-2 -30
q0 -5 6 -53q2 -14 13 -39q14 -30 17 -40v-14q0 -18 -11 -34t-29 -16h-8q-21 0 -36.5 15.5t-15.5 36.5l2 6l30 78q8 30 8 90h-8q-26 0 -51 -9q-63 -23 -75 -25l-10 -2q-21 0 -35.5 14.5t-14.5 35.5t15.5 33.5t36.5 12.5l6 2q12 -1 54 -19.5t82 -18.5q0 107 -46 184z" />
    <glyph glyph-name="periodcentered" 
 />
    <glyph glyph-name="quotesinglbase" unicode="&#x201a;" 
 />
    <glyph glyph-name="quotedblbase" unicode="&#x201e;" 
 />
    <glyph glyph-name="perthousand" unicode="&#x2030;" horiz-adv-x="1002" 
d="M4 582q0 45 42 69q35 19 84 19q132 0 132 -94v-162q0 -90 -126 -90q-43 0 -79 15q-53 22 -53 69v174zM148 426v130q0 14 -1 17q-3 9 -11 9q-12 0 -12 -26v-130q0 -18 12 -18t12 18zM434 80v160q0 45 42 70q36 20 84 20q130 0 130 -96v-154q0 -90 -124 -90q-52 0 -87 19
q-45 24 -45 71zM578 84v132q0 24 -12 24q-6 0 -9 -4.5t-3 -19.5v-132q0 -16 12 -16t12 16zM164 2l240 656h132l-240 -656h-132zM734 80v160q0 45 42 70q36 20 84 20q130 0 130 -96v-154q0 -90 -124 -90q-52 0 -87 19q-45 24 -45 71zM878 84v132q0 24 -12 24q-6 0 -9 -4.5
t-3 -19.5v-132q0 -16 12 -16t12 16z" />
    <glyph glyph-name="dotlessi" unicode="&#x131;" 
 />
    <glyph glyph-name="circumflex" unicode="&#x2c6;" 
 />
    <glyph glyph-name="tilde" unicode="&#x2dc;" 
 />
    <glyph glyph-name="macron" unicode="&#xaf;" 
 />
    <glyph glyph-name="macron" unicode="&#x2c9;" 
 />
    <glyph glyph-name="breve" unicode="&#x2d8;" 
 />
    <glyph glyph-name="dotaccent" unicode="&#x2d9;" 
 />
    <glyph glyph-name="ring" unicode="&#x2da;" 
 />
    <glyph glyph-name="cedilla" unicode="&#xb8;" 
 />
    <glyph glyph-name="hungarumlaut" unicode="&#x2dd;" 
 />
    <glyph glyph-name="ogonek" unicode="&#x2db;" 
 />
    <glyph glyph-name="caron" unicode="&#x2c7;" 
 />
    <glyph glyph-name="Lslash" unicode="&#x141;" 
 />
    <glyph glyph-name="lslash" unicode="&#x142;" 
 />
    <glyph glyph-name="Eth" unicode="&#xd0;" 
 />
    <glyph glyph-name="eth" unicode="&#xf0;" 
 />
    <glyph glyph-name="Scaron" unicode="&#x160;" 
 />
    <glyph glyph-name="scaron" unicode="&#x161;" 
 />
    <glyph glyph-name="Yacute" unicode="&#xdd;" horiz-adv-x="542" 
d="M0 652h234v-90q0 -48 34 -112q36 50 36 112v90h210v-114q-33 -33 -48 -64l-108 -222v-84q0 -37 24 -54v-112h-252v112q24 18 24 54v78l-100 204l-22 50q-17 34 -32 38v114zM214 702l47 147h130l-87 -147h-90z" />
    <glyph glyph-name="yacute" unicode="&#xfd;" horiz-adv-x="482" 
d="M-2 480h240v-110q-20 0 -20 -22q0 -13 5 -29q9 -29 9 -31l24 -78l18 78q3 20 10 60q0 22 -16 22v110h202v-110q-15 -10 -42 -94l-96 -298q-25 -79 -39 -99q-17 -26 -61 -43q-31 -12 -70 -12q-43 0 -86 16v108q61 0 72 48l-90 250l-21.5 66.5t-38.5 57.5v110zM178 530
l47 147h130l-87 -147h-90z" />
    <glyph glyph-name="HT" horiz-adv-x="276" 
 />
    <glyph glyph-name="LF" 
 />
    <glyph glyph-name="Thorn" unicode="&#xde;" 
 />
    <glyph glyph-name="thorn" unicode="&#xfe;" 
 />
    <glyph glyph-name="nonmarkingreturn" horiz-adv-x="276" 
 />
    <glyph glyph-name="Zcaron" unicode="&#x17d;" 
 />
    <glyph glyph-name="zcaron" unicode="&#x17e;" 
 />
    <glyph glyph-name="DLE" 
 />
    <glyph glyph-name="DC1" 
 />
    <glyph glyph-name="DC2" 
 />
    <glyph glyph-name="DC3" 
 />
    <glyph glyph-name="DC4" 
 />
    <glyph glyph-name="onehalf" unicode="&#xbd;" 
 />
    <glyph glyph-name="onequarter" unicode="&#xbc;" 
 />
    <glyph glyph-name="onesuperior" unicode="&#xb9;" 
 />
    <glyph glyph-name="threequarters" unicode="&#xbe;" 
 />
    <glyph glyph-name="threesuperior" unicode="&#xb3;" 
 />
    <glyph glyph-name="twosuperior" unicode="&#xb2;" 
 />
    <glyph glyph-name="brokenbar" unicode="&#xa6;" 
 />
    <glyph glyph-name="minus" unicode="&#x2212;" 
 />
    <glyph glyph-name="multiply" unicode="&#xd7;" 
 />
    <glyph glyph-name="RS" 
 />
    <glyph glyph-name="US" 
 />
    <glyph glyph-name="DEL" 
 />
    <glyph glyph-name="Adieresis" unicode="&#xc4;" horiz-adv-x="10" 
d="M-290 756l-30 -48h-108l90 126h88l90 -126h-102zM-358 -98q0 27 18.5 42.5t45.5 15.5t46.5 -15.5t19.5 -42.5q0 -30 -17.5 -52t-46.5 -22t-47.5 22.5t-18.5 51.5z" />
    <glyph glyph-name="Aring" unicode="&#xc5;" horiz-adv-x="10" 
d="M-264 892v20q5 42 38 64q30 20 74 20h16q103 0 112 -84v-8q0 -33 -18 -53q-8 -9 -36 -27q-38 -17 -38 -50l-56 -2v40q0 15 17 36l37 44v14q0 22 -22 22h-18q-22 0 -22 -22v-14h-84zM-290 756l-30 -48h-108l90 126h88l90 -126h-102z" />
    <glyph glyph-name="Ccedilla" unicode="&#xc7;" horiz-adv-x="542" 
d="M228 168q0 -48 34 -48q36 0 36 48v102h204v-208q-25 -41 -110 -62q-64 -16 -130 -16v-18h24q24 0 24 -42v-60q0 -46 -48 -46h-76v64h54v48h-18q-11 0 -13 3q-5 6 -5 27v30q-88 0 -137 54t-49 142v270q0 107 58 157q54 45 164 45q152 0 262 -64v-180h-204v66q0 16 -8.5 31
t-23.5 15q-38 0 -38 -76v-282z" />
    <glyph glyph-name="Eacute" unicode="&#xc9;" horiz-adv-x="542" 
d="M24 652h490v-226h-192v42q0 40 -54 40h-18v-118h132v-126h-132v-126l16 -2q56 0 56 50v48h192v-232h-490v118q18 10 18 36v328q0 36 -18 54v114zM208 702l47 147h130l-87 -147h-90z" />
    <glyph glyph-name="Ntilde" unicode="&#xd1;" horiz-adv-x="564" 
d="M46 280h-18v110h18v90q0 45 -30 52v120h304q216 0 216 -190v-258q0 -202 -210 -202h-310v118q20 8 26 24q4 10 4 36v100zM256 280v-142l18 -2q52 0 52 58v268q0 31 -21 40q-13 6 -49 6v-118h42v-110h-42z" />
    <glyph glyph-name="Odieresis" unicode="&#xd6;" horiz-adv-x="564" 
d="M512 586v-386q0 -72 -21 -115q-25 -50 -87 -77q-46 -20 -124 -20q-86 0 -132 20q-108 47 -108 170v300q0 40 -24 54v120h252v-120q-24 -12 -24 -70v-252q0 -40 1 -46q5 -32 39 -32q36 0 36 50v298q0 43 -24 52v120h210q16 19 18 32q-31 0 -52.5 21.5t-21.5 52.5
t21.5 50.5t52.5 19.5q40 0 64 -23t24 -63q0 -33 -14 -64q-36 -61 -86 -92z" />
    <glyph glyph-name="Udieresis" unicode="&#xdc;" horiz-adv-x="10" 
d="M-436 804h86q0 -20 50 -20q52 0 52 20h74q0 -49 -43 -74q-35 -20 -87 -20q-43 0 -79 17q-53 25 -53 77zM-272 854h-72q0 42 30 72t72 30q8 0 56 -12q24 -6 36 -6q20 0 26 12h66q0 -38 -26.5 -70t-63.5 -32q-18 0 -52 10t-48 10q-18 0 -24 -14z" />
    <glyph glyph-name="aacute" unicode="&#xe1;" horiz-adv-x="502" 
d="M34 432q77 58 220 58q80 0 132 -30q64 -38 64 -112v-192q0 -20 7.5 -30t16.5 -18v-106h-196v36l-47 -30q-35 -18 -79 -18q-67 0 -104.5 37t-37.5 105q0 54 36 91q33 35 88 47l132 42v24q0 40 -24 40h-8q-34 0 -34 -64h-166v120zM266 144v56q-25 -6 -36 -11
q-36 -16 -36 -39q0 -30 24 -30q11 0 26.5 8t21.5 16zM194 544l47 147h130l-87 -147h-90z" />
    <glyph glyph-name="agrave" unicode="&#xe0;" horiz-adv-x="502" 
d="M34 432q77 58 220 58q80 0 132 -30q64 -38 64 -112v-192q0 -20 7.5 -30t16.5 -18v-106h-196v36l-47 -30q-35 -18 -79 -18q-67 0 -104.5 37t-37.5 105q0 54 36 91q33 35 88 47l132 42v24q0 40 -24 40h-8q-34 0 -34 -64h-166v120zM266 144v56q-25 -6 -36 -11
q-36 -16 -36 -39q0 -30 24 -30q11 0 26.5 8t21.5 16zM132 665h130l44 -126h-92z" />
    <glyph glyph-name="acircumflex" unicode="&#xe2;" horiz-adv-x="502" 
d="M34 432q77 58 220 58q80 0 132 -30q64 -38 64 -112v-192q0 -20 7.5 -30t16.5 -18v-106h-196v36l-47 -30q-35 -18 -79 -18q-67 0 -104.5 37t-37.5 105q0 54 36 91q33 35 88 47l132 42v24q0 40 -24 40h-8q-34 0 -34 -64h-166v120zM266 144v56q-25 -6 -36 -11
q-36 -16 -36 -39q0 -30 24 -30q11 0 26.5 8t21.5 16zM252 589l-30 -50h-108l90 126h90l88 -126h-100z" />
    <glyph glyph-name="adieresis" unicode="&#xe4;" horiz-adv-x="10" 
d="M-264 578l-30 -50h-108l90 126h90l88 -126h-100zM-328 -94q0 27 18.5 42.5t45.5 15.5t46.5 -15.5t19.5 -42.5q0 -30 -17.5 -52t-46.5 -22t-47.5 22.5t-18.5 51.5z" />
    <glyph glyph-name="atilde" unicode="&#xe3;" horiz-adv-x="502" 
d="M34 432q77 58 220 58q80 0 132 -30q64 -38 64 -112v-192q0 -20 7.5 -30t16.5 -18v-106h-196v36l-47 -30q-35 -18 -79 -18q-67 0 -104.5 37t-37.5 105q0 54 36 91q33 35 88 47l132 42v24q0 40 -24 40h-8q-34 0 -34 -64h-166v120zM266 144v56q-25 -6 -36 -11
q-36 -16 -36 -39q0 -30 24 -30q11 0 26.5 8t21.5 16zM177 545h-72q0 42 30 72t72 30q15 0 45.5 -9t46.5 -9q20 0 26 12h68q0 -37 -27 -69.5t-63 -32.5q-18 0 -42 6q-55 14 -60 14q-18 0 -24 -14z" />
    <glyph glyph-name="aring" unicode="&#xe5;" horiz-adv-x="10" 
d="M-264 578l-30 -50h-108l90 126h90l88 -126h-100zM-240 722v20q5 41 36 64q28 20 71 20h15q97 0 106 -84v-8q0 -33 -17 -53q-9 -10 -34 -27q-30 -15 -30 -52h-59v40q0 13 21 41l30 39v14q0 22 -21 22h-17q-21 0 -21 -22v-14h-80z" />
    <glyph glyph-name="ccedilla" unicode="&#xe7;" horiz-adv-x="482" 
d="M22 150v174q0 95 56 131q45 29 148 29q138 0 208 -58v-126h-166v30q0 25 -3 32q-6 14 -27 14q-36 0 -36 -58v-150q0 -34 2 -42q5 -24 28 -24q36 0 36 60v42h166v-148q-64 -66 -202 -66v-18h18q24 0 24 -36v-72q0 -40 -40 -40h-80v64h54v42q-38 0 -38 24v42
q-76 13 -110 45q-38 37 -38 109z" />
    <glyph glyph-name="eacute" unicode="&#xe9;" horiz-adv-x="482" 
d="M16 150v180q0 97 63 133q47 27 153 27q208 0 208 -136v-150h-244v-48q0 -48 30 -48q12 0 21 9t9 21v42h184v-124q-29 -29 -104 -49q-65 -17 -116 -17q-204 0 -204 160zM196 312h72q0 31 -4 43q-8 21 -32 21q-36 0 -36 -64zM186 544l47 147h130l-87 -147h-90z" />
    <glyph glyph-name="egrave" unicode="&#xe8;" horiz-adv-x="482" 
d="M16 150v180q0 97 63 133q47 27 153 27q208 0 208 -136v-150h-244v-48q0 -48 30 -48q12 0 21 9t9 21v42h184v-124q-29 -29 -104 -49q-65 -17 -116 -17q-204 0 -204 160zM196 312h72q0 31 -4 43q-8 21 -32 21q-36 0 -36 -64zM113 665h130l44 -126h-92z" />
    <glyph glyph-name="ecircumflex" unicode="&#xea;" horiz-adv-x="482" 
d="M16 150v180q0 97 63 133q47 27 153 27q208 0 208 -136v-150h-244v-48q0 -48 30 -48q12 0 21 9t9 21v42h184v-124q-29 -29 -104 -49q-65 -17 -116 -17q-204 0 -204 160zM196 312h72q0 31 -4 43q-8 21 -32 21q-36 0 -36 -64zM240 589l-30 -50h-108l90 126h90l88 -126h-100z
" />
    <glyph glyph-name="edieresis" unicode="&#xeb;" horiz-adv-x="10" 
d="M-386 624h86q0 -20 50 -20q52 0 52 20h74q0 -49 -43 -74q-35 -20 -87 -20q-43 0 -79 17q-53 25 -53 77zM-304 -94q0 27 18.5 42.5t45.5 15.5t46.5 -15.5t19.5 -42.5q0 -30 -17.5 -52t-46.5 -22t-47.5 22.5t-18.5 51.5z" />
    <glyph glyph-name="iacute" unicode="&#xed;" horiz-adv-x="276" 
d="M69 534l57 144h123l-92 -144h-88zM12 484h204v-304q0 -60 24 -72v-106h-228v106q24 12 24 60v126q0 70 -24 76v114z" />
    <glyph glyph-name="igrave" unicode="&#xec;" horiz-adv-x="276" 
d="M12 484h204v-304q0 -60 24 -72v-106h-228v106q24 12 24 60v126q0 70 -24 76v114zM-13 667h135l40 -133h-88z" />
    <glyph glyph-name="icircumflex" unicode="&#xee;" horiz-adv-x="482" 
d="M-2 480h240v-110q-20 0 -20 -22q0 -13 5 -29q9 -29 9 -31l24 -78l18 78q3 20 10 60q0 22 -16 22v110h202v-110q-15 -10 -42 -94l-96 -298q-23 -70 -31 -85q-22 -39 -69 -57q-31 -12 -70 -12q-43 0 -86 16v108q61 0 72 48l-90 250l-21.5 66.5t-38.5 57.5v110zM372 -116
q0 27 18.5 42.5t45.5 15.5t46.5 -15.5t19.5 -42.5q0 -30 -17.5 -52t-46.5 -22t-47.5 22.5t-18.5 51.5z" />
    <glyph glyph-name="idieresis" unicode="&#xef;" horiz-adv-x="10" 
d="M-328 -116q0 27 18.5 42.5t45.5 15.5t46.5 -15.5t19.5 -42.5q0 -30 -17.5 -52t-46.5 -22t-47.5 22.5t-18.5 51.5z" />
    <glyph glyph-name="ntilde" unicode="&#xf1;" horiz-adv-x="502" 
d="M242 510h-54v110h54v32h198v-32h22v-110h-22v-316q0 -38 1 -47q4 -29 21 -39v-106h-202v18q-30 -30 -120 -30q-62 0 -94 37t-32 101l2 16v198q0 142 124 142h12q60 0 108 -28q0 45 -18 54zM260 132v210q-14 8 -36 8q-30 0 -30 -50v-96q0 -80 36 -80q20 6 30 8z" />
    <glyph glyph-name="oacute" unicode="&#xf3;" horiz-adv-x="482" 
d="M10 168v168q0 96 63 130q46 24 153 24q110 0 153 -23q61 -33 61 -131v-180q0 -100 -60 -135q-44 -25 -154 -25q-112 0 -157 29q-59 38 -59 143zM262 156v186q0 40 -36 40t-36 -46v-180q0 -48 36 -48t36 48zM188 540l47 147h130l-87 -147h-90z" />
    <glyph glyph-name="ograve" unicode="&#xf2;" horiz-adv-x="482" 
d="M10 168v168q0 96 63 130q46 24 153 24q110 0 153 -23q61 -33 61 -131v-180q0 -100 -60 -135q-44 -25 -154 -25q-112 0 -157 29q-59 38 -59 143zM262 156v186q0 40 -36 40t-36 -46v-180q0 -48 36 -48t36 48zM112 666h130l44 -126h-92z" />
    <glyph glyph-name="ocircumflex" unicode="&#xf4;" horiz-adv-x="482" 
d="M10 168v168q0 96 63 130q46 24 153 24q110 0 153 -23q61 -33 61 -131v-180q0 -100 -60 -135q-44 -25 -154 -25q-112 0 -157 29q-59 38 -59 143zM262 156v186q0 40 -36 40t-36 -46v-180q0 -48 36 -48t36 48zM232 590l-30 -50h-108l90 126h90l88 -126h-100z" />
    <glyph glyph-name="odieresis" unicode="&#xf6;" horiz-adv-x="522" 
d="M462 468q17 20 19 22q10 14 13 26q-26 0 -44 18t-18 44q0 25 18.5 40.5t43.5 15.5q72 0 72 -70q0 -25 -12 -52q-28 -47 -74 -78l-18 -12v-254q0 -43 22 -60v-106h-208v24q-30 -30 -108 -30q-77 0 -108 36q-28 33 -28 112v180q0 36 -24 52v104h192q16 -19 16 -60v-204
q0 -94 32 -94q11 0 28 10v198q0 31 -24 46v104h210v-12z" />
    <glyph glyph-name="otilde" unicode="&#xf5;" horiz-adv-x="482" 
d="M10 168v168q0 96 63 130q46 24 153 24q110 0 153 -23q61 -33 61 -131v-180q0 -100 -60 -135q-44 -25 -154 -25q-112 0 -157 29q-59 38 -59 143zM262 156v186q0 40 -36 40t-36 -46v-180q0 -48 36 -48t36 48zM161 544h-72q0 42 30 72t72 30q15 0 45.5 -9t46.5 -9
q20 0 26 12h68q0 -37 -27 -69.5t-63 -32.5q-18 0 -42 6q-55 14 -60 14q-18 0 -24 -14z" />
    <glyph glyph-name="uacute" unicode="&#xfa;" horiz-adv-x="522" 
d="M8 480h192q16 -19 16 -60v-204q0 -94 32 -94q11 0 28 10v198q0 31 -24 46v104h210v-312q0 -43 22 -60v-106h-208v24q-30 -30 -108 -30q-77 0 -108 36q-28 33 -28 112v180q0 36 -24 52v104zM194 544l47 147h130l-87 -147h-90z" />
    <glyph glyph-name="ugrave" unicode="&#xf9;" horiz-adv-x="522" 
d="M8 480h192q16 -19 16 -60v-204q0 -94 32 -94q11 0 28 10v198q0 31 -24 46v104h210v-312q0 -43 22 -60v-106h-208v24q-30 -30 -108 -30q-77 0 -108 36q-28 33 -28 112v180q0 36 -24 52v104zM132 665h130l44 -126h-92z" />
    <glyph glyph-name="ucircumflex" unicode="&#xfb;" horiz-adv-x="10" 
d="M-376 643v20q5 41 36 64q28 20 71 20h15q97 0 106 -84v-8q0 -33 -17 -53q-9 -10 -34 -27q-31 -15 -31 -44v-8h-58v40q0 13 21 41l30 39v14q0 22 -21 22h-17q-21 0 -21 -22v-14h-80z" />
    <glyph glyph-name="udieresis" unicode="&#xfc;" horiz-adv-x="10" 
d="M-386 624h86q0 -20 50 -20q52 0 52 20h74q0 -49 -43 -74q-35 -20 -87 -20q-43 0 -79 17q-53 25 -53 77zM-230 664h-72q0 42 30 72t72 30q15 0 45.5 -9t46.5 -9q20 0 26 12h68q0 -37 -27 -69.5t-63 -32.5q-18 0 -42 6q-55 14 -60 14q-18 0 -24 -14z" />
    <glyph glyph-name="degree" unicode="&#xb0;" horiz-adv-x="882" 
d="M449 616q103 0 169 -66t66 -169q0 -102 -66 -167.5t-169 -65.5q-101 0 -166.5 66t-65.5 167t65.5 168t166.5 67z" />
    <glyph glyph-name="registered" unicode="&#xae;" horiz-adv-x="760" 
d="M356 568q-105 0 -172.5 -73t-67.5 -179l2 -10q0 -91 76 -158.5t168 -67.5q90 0 168 68.5t78 157.5v10q0 100 -71.5 176t-170.5 76h-10zM356 664q126 0 227 -80q119 -95 119 -254q0 -126 -83 -227q-98 -119 -263 -119h-10q-132 0 -228 103.5t-96 236.5q0 154 109 252
q98 88 225 88zM214 514h202q49 0 81.5 -26t32.5 -74q0 -108 -90 -108l72 -144h-102l-60 144h-48v-144h-88v352zM302 456v-86h98q40 0 40 40q0 16 -12 31t-28 15h-98z" />
    <glyph glyph-name="copyright" unicode="&#xa9;" horiz-adv-x="768" 
d="M446 384q-8 66 -78 66q-42 0 -66 -46q-20 -38 -20 -84q0 -45 17 -77q22 -39 63 -39q77 0 84 54h90v-10q0 -64 -61 -102q-52 -32 -119 -32q-87 0 -141 63q-53 59 -53 147q0 89 55.5 145.5t144.5 56.5q64 0 110 -24q70 -37 70 -118h-96zM356 562q-98 0 -172 -72t-74 -170
l2 -8q0 -97 73.5 -167.5t170.5 -70.5q102 0 177 68.5t75 169.5v8q0 94 -69.5 168t-162.5 74h-20zM356 658q147 0 246.5 -96.5t99.5 -243.5q0 -137 -96.5 -235.5t-233.5 -98.5h-10q-145 0 -245.5 98t-100.5 242q0 153 112 249q100 85 228 85z" />
    <glyph glyph-name="trademark" unicode="&#x2122;" horiz-adv-x="522" 
d="M12 710h224v-116h-58v44q0 12 -12 14v-128q0 -23 8 -26v-48h-100v44q10 5 10 20v138q-12 0 -12 -16v-42h-60v116zM252 710h106l26 -100l26 100h100v-46q-7 -4 -8.5 -9.5t-1.5 -28.5v-100q0 -24 10 -28v-48h-98v48q10 3 10 16v74l-36 -138h-24l-36 136v-60q0 -24 10 -28
v-48h-84v48q10 0 10 14v136q0 13 -10 16v46z" />
    <glyph glyph-name="notequal" unicode="&#x2260;" 
 />
    <glyph glyph-name="infinity" unicode="&#x221e;" horiz-adv-x="10" 
d="M-290 756l-30 -48h-108l90 126h88l90 -126h-102zM-195 795l43 131h124l-77 -131h-90z" />
    <glyph glyph-name="plusminus" unicode="&#xb1;" horiz-adv-x="10" 
d="M-264 578l-30 -50h-108l90 126h90l88 -126h-100zM-246 780h130l47 -144h-86z" />
    <glyph glyph-name="lessequal" unicode="&#x2264;" horiz-adv-x="10" 
d="M-264 578l-30 -50h-108l90 126h90l88 -126h-100zM-240 722v20q5 41 36 64q28 20 71 20h15q97 0 106 -84v-8q0 -33 -17 -53q-9 -10 -34 -27q-30 -15 -30 -52h-59v40q0 13 21 41l30 39v14q0 22 -21 22h-17q-21 0 -21 -22v-14h-80z" />
    <glyph glyph-name="greaterequal" unicode="&#x2265;" horiz-adv-x="10" 
d="M-264 578l-30 -50h-108l90 126h90l88 -126h-100zM-334 696h-72q0 42 30 72t72 30q15 0 45.5 -9t46.5 -9q20 0 26 12h68q0 -37 -27 -69.5t-63 -32.5q-18 0 -42 6q-55 14 -60 14q-18 0 -24 -14z" />
    <glyph glyph-name="mu" unicode="&#xb5;" horiz-adv-x="10" 
d="M-264 578l-30 -50h-108l90 126h90l88 -126h-100zM-328 -94q0 27 18.5 42.5t45.5 15.5t46.5 -15.5t19.5 -42.5q0 -30 -17.5 -52t-46.5 -22t-47.5 22.5t-18.5 51.5z" />
    <glyph glyph-name="mu" unicode="&#x3bc;" horiz-adv-x="10" 
d="M-264 578l-30 -50h-108l90 126h90l88 -126h-100zM-328 -94q0 27 18.5 42.5t45.5 15.5t46.5 -15.5t19.5 -42.5q0 -30 -17.5 -52t-46.5 -22t-47.5 22.5t-18.5 51.5z" />
    <glyph glyph-name="partialdiff" unicode="&#x2202;" horiz-adv-x="10" 
d="M-386 624h86q0 -20 50 -20q52 0 52 20h74q0 -49 -43 -74q-35 -20 -87 -20q-43 0 -79 17q-53 25 -53 77zM-296 668l44 114h124l-76 -114h-92z" />
    <glyph glyph-name="summation" unicode="&#x2211;" horiz-adv-x="10" 
d="M-386 624h86q0 -20 50 -20q52 0 52 20h74q0 -49 -43 -74q-35 -20 -87 -20q-43 0 -79 17q-53 25 -53 77zM-378 788h132l40 -126h-88z" />
    <glyph glyph-name="product" unicode="&#x220f;" horiz-adv-x="10" 
d="M-386 624h86q0 -20 50 -20q52 0 52 20h74q0 -49 -43 -74q-35 -20 -87 -20q-43 0 -79 17q-53 25 -53 77zM-358 754v20q5 41 36 64q28 20 71 20h15q97 0 106 -84v-8q0 -33 -17 -53q-9 -10 -34 -27q-36 -17 -36 -50l-53 -2v40q0 13 21 41l30 39v14q0 22 -21 22h-17
q-21 0 -21 -22v-14h-80z" />
    <glyph glyph-name="pi" unicode="&#x3c0;" horiz-adv-x="10" 
d="M-386 624h86q0 -20 50 -20q52 0 52 20h74q0 -49 -43 -74q-35 -20 -87 -20q-43 0 -79 17q-53 25 -53 77zM-230 664h-72q0 42 30 72t72 30q15 0 45.5 -9t46.5 -9q20 0 26 12h68q0 -37 -27 -69.5t-63 -32.5q-18 0 -42 6q-55 14 -60 14q-18 0 -24 -14z" />
    <glyph glyph-name="integral" unicode="&#x222b;" horiz-adv-x="10" 
d="M-386 624h86q0 -20 50 -20q52 0 52 20h74q0 -49 -43 -74q-35 -20 -87 -20q-43 0 -79 17q-53 25 -53 77zM-304 -94q0 27 18.5 42.5t45.5 15.5t46.5 -15.5t19.5 -42.5q0 -30 -17.5 -52t-46.5 -22t-47.5 22.5t-18.5 51.5z" />
    <glyph glyph-name="Omega" unicode="&#x3a9;" 
 />
    <glyph glyph-name="Omega" unicode="&#x2126;" 
 />
    <glyph glyph-name="logicalnot" unicode="&#xac;" 
 />
    <glyph glyph-name="radical" unicode="&#x221a;" 
 />
    <glyph glyph-name="approxequal" unicode="&#x2248;" 
 />
    <glyph glyph-name="approxequal" unicode="&#x22f2;" 
 />
    <glyph glyph-name="Delta" unicode="&#x394;" 
 />
    <glyph glyph-name="Delta" unicode="&#x2206;" 
 />
    <glyph glyph-name="nonbreakingspace" unicode="&#xa0;" horiz-adv-x="276" 
 />
    <glyph glyph-name="Agrave" unicode="&#xc0;" horiz-adv-x="556" 
d="M410 652l90 -472q9 -47 36 -66v-112h-256v112q22 18 22 60h-100q0 -42 24 -60v-112h-222v118q22 22 30 66l84 466h292zM280 300l-30 190l-30 -190h60zM135 829h130l44 -126h-92z" />
    <glyph glyph-name="Atilde" unicode="&#xc3;" horiz-adv-x="556" 
d="M410 652l90 -472q9 -47 36 -66v-112h-256v112q22 18 22 60h-100q0 -42 24 -60v-112h-222v118q22 22 30 66l84 466h292zM280 300l-30 190l-30 -190h60zM201 707h-72q0 42 30 72t72 30q15 0 45.5 -9t46.5 -9q20 0 26 12h68q0 -37 -27 -69.5t-63 -32.5q-18 0 -42 6
q-55 14 -60 14q-18 0 -24 -14z" />
    <glyph glyph-name="Otilde" unicode="&#xd5;" horiz-adv-x="564" 
d="M28 200v268q0 196 252 196q115 0 171 -37q67 -45 67 -153v-294q0 -107 -67 -153q-56 -37 -171 -37q-121 0 -181 44q-71 51 -71 166zM314 194v274q0 26 -1 31q-4 21 -33 21q-42 0 -42 -52v-274q0 -62 42 -62q34 0 34 62zM197 720h-72q0 42 30 72t72 30q15 0 45.5 -9
t46.5 -9q20 0 26 12h68q0 -37 -27 -69.5t-63 -32.5q-18 0 -42 6q-55 14 -60 14q-18 0 -24 -14z" />
    <glyph glyph-name="divide" unicode="&#xf7;" 
 />
    <glyph glyph-name="lozenge" unicode="&#x25ca;" 
 />
    <glyph glyph-name="ydieresis" unicode="&#xff;" horiz-adv-x="482" 
d="M-2 480h240v-110q-20 0 -20 -22q0 -13 5 -29q9 -29 9 -31l24 -78l18 78q3 20 10 60q0 22 -16 22v110h202v-110q-15 -10 -42 -94l-96 -298q-23 -70 -31 -85q-22 -39 -69 -57q-31 -12 -70 -12q-43 0 -86 16v108q61 0 72 48l-90 250l-21.5 66.5t-38.5 57.5v110zM372 -92
q0 27 18.5 42.5t45.5 15.5t46.5 -15.5t19.5 -42.5q0 -30 -17.5 -52t-46.5 -22t-47.5 22.5t-18.5 51.5z" />
    <glyph glyph-name="Ydieresis" unicode="&#x178;" horiz-adv-x="542" 
d="M0 652h234v-90q0 -48 34 -112q36 50 36 112v90h210v-114q-33 -33 -48 -64l-108 -222v-84q0 -37 24 -54v-112h-252v112q24 18 24 54v78l-100 204l-22 50q-17 34 -32 38v114zM202 -96q0 27 18.5 42.5t45.5 15.5t46.5 -15.5t19.5 -42.5q0 -30 -17.5 -52t-46.5 -22
t-47.5 22.5t-18.5 51.5z" />
    <glyph glyph-name="Acircumflex" unicode="&#xc2;" horiz-adv-x="556" 
d="M410 652l90 -472q9 -47 36 -66v-112h-256v112q22 18 22 60h-100q0 -42 24 -60v-112h-222v118q22 22 30 66l84 466h292zM280 300l-30 190l-30 -190h60zM265 752l-30 -50h-108l90 126h90l88 -126h-100z" />
    <glyph glyph-name="Ecircumflex" unicode="&#xca;" horiz-adv-x="542" 
d="M24 652h490v-226h-192v42q0 40 -54 40h-18v-118h132v-126h-132v-126l16 -2q56 0 56 50v48h192v-232h-490v118q18 10 18 36v328q0 36 -18 54v114zM270 752l-30 -50h-108l90 126h90l88 -126h-100z" />
    <glyph glyph-name="Aacute" unicode="&#xc1;" horiz-adv-x="556" 
d="M410 652l90 -472q9 -47 36 -66v-112h-256v112q22 18 22 60h-100q0 -42 24 -60v-112h-222v118q22 22 30 66l84 466h292zM280 300l-30 190l-30 -190h60zM212 702l47 147h130l-87 -147h-90z" />
    <glyph glyph-name="Edieresis" unicode="&#xcb;" horiz-adv-x="10" 
d="M-436 804h86q0 -20 50 -20q52 0 52 20h74q0 -49 -43 -74q-35 -20 -87 -20q-43 0 -79 17q-53 25 -53 77zM-356 -98q0 27 18.5 42.5t45.5 15.5t46.5 -15.5t19.5 -42.5q0 -30 -17.5 -52t-46.5 -22t-47.5 22.5t-18.5 51.5z" />
    <glyph glyph-name="Egrave" unicode="&#xc8;" horiz-adv-x="542" 
d="M24 652h490v-226h-192v42q0 40 -54 40h-18v-118h132v-126h-132v-126l16 -2q56 0 56 50v48h192v-232h-490v118q18 10 18 36v328q0 36 -18 54v114zM154 828h130l44 -126h-92z" />
    <glyph glyph-name="Iacute" unicode="&#xcd;" horiz-adv-x="318" 
d="M22 652h256v-114q-24 -18 -24 -64v-288q0 -29 3 -40q4 -15 21 -32v-112h-256v112q22 19 22 54v324q0 33 -22 46v114zM99 702l57 144h123l-92 -144h-88z" />
    <glyph glyph-name="Icircumflex" unicode="&#xce;" horiz-adv-x="542" 
d="M0 652h234v-90q0 -48 34 -112q36 50 36 112v90h210v-114q-33 -33 -48 -64l-108 -222v-84q0 -37 24 -54v-112h-252v112q24 18 24 54v78l-100 204l-22 50q-17 34 -32 38v114zM202 -96q0 27 18.5 42.5t45.5 15.5t46.5 -15.5t19.5 -42.5q0 -30 -17.5 -52t-46.5 -22
t-47.5 22.5t-18.5 51.5z" />
    <glyph glyph-name="Idieresis" unicode="&#xcf;" horiz-adv-x="10" 
d="M-358 -116q0 27 18.5 42.5t45.5 15.5t46.5 -15.5t19.5 -42.5q0 -30 -17.5 -52t-46.5 -22t-47.5 22.5t-18.5 51.5z" />
    <glyph glyph-name="Igrave" unicode="&#xcc;" horiz-adv-x="318" 
d="M22 652h256v-114q-24 -18 -24 -64v-288q0 -29 3 -40q4 -15 21 -32v-112h-256v112q22 19 22 54v324q0 33 -22 46v114zM19 846h130l47 -144h-86z" />
    <glyph glyph-name="Oacute" unicode="&#xd3;" horiz-adv-x="564" 
d="M28 200v268q0 196 252 196q115 0 171 -37q67 -45 67 -153v-294q0 -107 -67 -153q-56 -37 -171 -37q-121 0 -181 44q-71 51 -71 166zM314 194v274q0 26 -1 31q-4 21 -33 21q-42 0 -42 -52v-274q0 -62 42 -62q34 0 34 62zM229 715l47 147h130l-87 -147h-90z" />
    <glyph glyph-name="Ocircumflex" unicode="&#xd4;" horiz-adv-x="564" 
d="M28 200v268q0 196 252 196q115 0 171 -37q67 -45 67 -153v-294q0 -107 -67 -153q-56 -37 -171 -37q-121 0 -181 44q-71 51 -71 166zM314 194v274q0 26 -1 31q-4 21 -33 21q-42 0 -42 -52v-274q0 -62 42 -62q34 0 34 62zM279 763l-30 -50h-108l90 126h90l88 -126h-100z
" />
    <glyph glyph-name="apple" unicode="&#xf000;" 
 />
    <glyph glyph-name="Ograve" unicode="&#xd2;" horiz-adv-x="564" 
d="M28 200v268q0 196 252 196q115 0 171 -37q67 -45 67 -153v-294q0 -107 -67 -153q-56 -37 -171 -37q-121 0 -181 44q-71 51 -71 166zM314 194v274q0 26 -1 31q-4 21 -33 21q-42 0 -42 -52v-274q0 -62 42 -62q34 0 34 62zM152 839h130l44 -126h-92z" />
    <glyph glyph-name="Uacute" unicode="&#xda;" horiz-adv-x="564" 
d="M16 652h252v-120q-24 -12 -24 -70v-252q0 -40 1 -46q5 -32 39 -32q36 0 36 50v298q0 43 -24 52v120h246v-120q-30 -18 -30 -88v-244q0 -72 -21 -115q-25 -50 -87 -77q-46 -20 -124 -20q-86 0 -132 20q-108 47 -108 170v300q0 40 -24 54v120zM206 702l47 147h130l-87 -147
h-90z" />
    <glyph glyph-name="Ucircumflex" unicode="&#xdb;" horiz-adv-x="10" 
d="M-400 809v20q5 41 36 64q28 20 71 20h15q97 0 106 -84v-8q0 -33 -17 -53q-9 -10 -34 -27q-26 -12 -26 -52h-63v40q0 13 21 41l30 39v14q0 22 -21 22h-17q-21 0 -21 -22v-14h-80z" />
    <glyph glyph-name="Ugrave" unicode="&#xd9;" horiz-adv-x="564" 
d="M16 652h252v-120q-24 -12 -24 -70v-252q0 -40 1 -46q5 -32 39 -32q36 0 36 50v298q0 43 -24 52v120h246v-120q-30 -18 -30 -88v-244q0 -72 -21 -115q-25 -50 -87 -77q-46 -20 -124 -20q-86 0 -132 20q-108 47 -108 170v300q0 40 -24 54v120zM136 847h135l47 -144h-86z
" />
    <glyph glyph-name="glyph258" horiz-adv-x="278" 
 />
    <glyph glyph-name="glyph259" horiz-adv-x="278" 
 />
    <glyph glyph-name="sfthyphen" unicode="&#xad;" horiz-adv-x="338" 
d="M8 174l33 122h246l-33 -122h-246z" />
    <glyph glyph-name="Cacute" unicode="&#x106;" horiz-adv-x="711" 
d="M298 414v70q0 16 -9.5 28t-24.5 12q-36 0 -36 -50v-300q0 -17 9.5 -31.5t26.5 -14.5q34 0 34 46v102h204v-208q-24 -39 -110 -58q-62 -14 -130 -14q-244 0 -244 198v268q0 107 58 157q54 45 164 45q152 0 262 -64v-186h-204z" />
    <glyph glyph-name="cacute" unicode="&#x107;" horiz-adv-x="441" 
d="M22 150v174q0 95 56 131q45 29 148 29q159 0 208 -58v-126h-166v30q0 25 -3 32q-6 14 -27 14q-36 0 -36 -58v-150q0 -34 2 -42q5 -24 28 -24q36 0 36 60v42h166v-148q-32 -32 -93 -50q-52 -16 -105 -16h-22q-192 0 -192 160z" />
    <glyph glyph-name="Ccaron" unicode="&#x10c;" horiz-adv-x="711" 
d="M298 414v70q0 16 -9.5 28t-24.5 12q-36 0 -36 -50v-300q0 -17 9.5 -31.5t26.5 -14.5q34 0 34 46v102h204v-208q-24 -39 -110 -58q-62 -14 -130 -14q-244 0 -244 198v268q0 107 58 157q54 45 164 45q152 0 262 -64v-186h-204z" />
    <glyph glyph-name="ccaron" unicode="&#x10d;" horiz-adv-x="441" 
d="M22 150v174q0 95 56 131q45 29 148 29q159 0 208 -58v-126h-166v30q0 25 -3 32q-6 14 -27 14q-36 0 -36 -58v-150q0 -34 2 -42q5 -24 28 -24q36 0 36 60v42h166v-148q-32 -32 -93 -50q-52 -16 -105 -16h-22q-192 0 -192 160z" />
    <glyph glyph-name="Dslash" unicode="&#x110;" horiz-adv-x="564" 
d="M46 280h-18v110h18v90q0 45 -30 52v120h304q216 0 216 -190v-258q0 -202 -210 -202h-310v118q20 8 26 24q4 10 4 36v100zM256 280v-142l18 -2q52 0 52 58v268q0 31 -21 40q-13 6 -49 6v-118h42v-110h-42z" />
    <glyph glyph-name="dcroat" unicode="&#x111;" horiz-adv-x="502" 
d="M242 510h-54v110h54v32h198v-32h22v-110h-22v-316q0 -38 1 -47q4 -29 21 -39v-106h-202v18q-30 -30 -120 -30q-62 0 -94 37t-32 101l2 16v198q0 142 124 142h12q60 0 108 -28q0 45 -18 54zM260 132v210q-14 8 -36 8q-30 0 -30 -50v-96q0 -80 36 -80q20 6 30 8z" />
    <glyph glyph-name="Gbreve" unicode="&#x11e;" horiz-adv-x="767" 
d="M18 204v270q0 184 224 184h38q99 0 216 -70v-162h-198v42q0 54 -36 54q-20 0 -31 -21q-9 -17 -9 -39v-282q0 -50 38 -50t38 44v66h-30v124h228v-308q-24 -29 -107 -49q-70 -17 -121 -17h-28q-115 0 -168.5 49.5t-53.5 164.5z" />
    <glyph glyph-name="gbreve" unicode="&#x11f;" horiz-adv-x="492" 
d="M26 126v192q0 84 23 119q31 47 113 47q79 0 114 -34v30h204v-110q-24 -13 -24 -52v-334q0 -106 -48 -145q-43 -35 -150 -35h-18q-48 0 -107 15q-68 18 -95 45v114h172q0 -29 2 -37q6 -17 28 -17q36 0 36 38v64q-47 -36 -108 -36q-66 0 -104 35t-38 101zM276 132v216
q-12 6 -30 6q-36 0 -36 -48v-106q0 -35 3 -48q7 -28 31 -28q-8 0 32 8z" />
    <glyph glyph-name="Idotaccent" unicode="&#x130;" horiz-adv-x="429" 
d="M22 652h256v-114q-24 -18 -24 -64v-288q0 -29 3 -40q4 -15 21 -32v-112h-256v112q22 19 22 54v324q0 33 -22 46v114z" />
    <glyph glyph-name="Scedilla" unicode="&#x15e;" horiz-adv-x="656" 
d="M28 234h204v-40q0 -58 36 -58l12 2q28 5 28 62q0 40 -72 62l-112 32q-59 24 -83 71q-19 40 -19 109q0 184 220 184h20q121 0 232 -64v-156h-192v36q0 46 -34 46q-30 0 -36 -30l-2 -10q0 -39 52 -58l109 -28q61 -18 95 -65t34 -115q0 -45 -14 -94q-22 -77 -103 -109
q-54 -21 -147 -21q-54 0 -120 18q-88 24 -108 60v166z" />
    <glyph glyph-name="scedilla" unicode="&#x15f;" horiz-adv-x="383" 
d="M22 186h174v-36q0 -17 10.5 -29.5t27.5 -12.5q34 0 34 32v10q-7 32 -78 48q-97 22 -102 24q-78 33 -78 120q0 39 21.5 77.5t56.5 54.5q47 22 128 22q55 0 113 -16q72 -20 99 -54v-114h-166v30q0 17 -11.5 28.5t-28.5 11.5q-32 0 -32 -28q0 -29 31 -41q17 -7 47 -13
q78 -16 103 -29q57 -30 69 -97q2 -11 2 -34q0 -77 -68 -115q-54 -31 -138 -31q-42 0 -107 14q-25 4 -58 20q-38 18 -49 34v124z" />
    <glyph glyph-name="franc" unicode="&#x20a3;" horiz-adv-x="1035" 
d="M26 652h476v-226h-178v42q0 36 -31 41l-35 5v-124h126v-126h-126v-84q0 -42 18 -60v-118h-244v118q24 16 24 54v310q0 38 -30 48v120zM664 480h198v-30q14 19 25 27q20 15 47 15q20 0 28 -2v-172q-8 2 -26 2q-30 0 -52 -16.5t-22 -45.5v-90q0 -50 30 -60v-106h-228v106
q24 18 24 60v150q0 33 -24 52v110z" />
    <glyph glyph-name="u20AB" unicode="&#x20ab;" horiz-adv-x="393" 
d="M197 501q-48 0 -84 -88q-20 -49 -20 -90q0 -51 39 -51q41 0 74 71q28 60 28 107q0 51 -37 51zM200 267q-53 -62 -106 -62q-45 0 -68 28t-23 74q0 80 55 153q59 78 136 78q34 0 61 -24l20 75h-100l10 36h100l2 16q0 31 -48 32l7 33q67 2 128 14l15 3q6 0 6 -9l-3 -12
l-19 -77h65l-10 -36h-65l-69 -280q-5 -20 -5 -27q0 -15 12 -15q6 0 49 42l20 -18q-70 -86 -117 -86q-43 0 -53 62zM9 160h221v-56h-221v56z" />
    <glyph glyph-name="SF370000" unicode="&#x255f;" horiz-adv-x="718" 
d="M410 652l90 -472q9 -47 36 -66v-112h-256v112q22 18 22 60h-100q0 -42 24 -60v-112h-222v118q22 22 30 66l84 466h292zM280 300l-30 190l-30 -190h60z" />
    <glyph glyph-name="SF420000" unicode="&#x2560;" horiz-adv-x="681" 
d="M24 652h490v-226h-192v42q0 40 -54 40h-18v-118h132v-126h-132v-126l16 -2q56 0 56 50v48h192v-232h-490v118q18 10 18 36v328q0 36 -18 54v114z" />
    <glyph glyph-name="SF190000" unicode="&#x2561;" horiz-adv-x="429" 
d="M22 652h256v-114q-24 -18 -24 -64v-288q0 -29 3 -40q4 -15 21 -32v-112h-256v112q22 19 22 54v324q0 33 -22 46v114z" />
    <glyph glyph-name="SF200000" unicode="&#x2562;" horiz-adv-x="773" 
d="M28 200v268q0 196 252 196q115 0 171 -37q67 -45 67 -153v-294q0 -107 -67 -153q-56 -37 -171 -37q-121 0 -181 44q-71 51 -71 166zM314 194v274q0 26 -1 31q-4 21 -33 21q-42 0 -42 -52v-274q0 -62 42 -62q34 0 34 62z" />
    <glyph glyph-name="SF230000" unicode="&#x2563;" horiz-adv-x="811" 
d="M16 652h252v-120q-24 -12 -24 -70v-252q0 -40 1 -46q5 -32 39 -32q36 0 36 50v298q0 43 -24 52v120h246v-120q-30 -18 -30 -88v-244q0 -72 -21 -115q-25 -50 -87 -77q-46 -20 -124 -20q-86 0 -132 20q-108 47 -108 170v300q0 40 -24 54v120z" />
    <glyph glyph-name="SF470000" unicode="&#x2564;" horiz-adv-x="699" 
d="M0 652h234v-90q0 -48 34 -112q36 50 36 112v90h210v-114q-33 -33 -48 -64l-108 -222v-84q0 -37 24 -54v-112h-252v112q24 18 24 54v78l-100 204l-22 50q-17 34 -32 38v114z" />
    <glyph glyph-name="SF480000" unicode="&#x2565;" horiz-adv-x="541" 
d="M34 432q77 58 220 58q80 0 132 -30q64 -38 64 -112v-192q0 -20 7.5 -30t16.5 -18v-106h-196v36l-47 -30q-35 -18 -79 -18q-67 0 -104.5 37t-37.5 105q0 54 36 91q33 35 88 47l132 42v24q0 40 -24 40h-8q-34 0 -34 -64h-166v120zM266 144v56q-25 -6 -36 -11
q-36 -16 -36 -39q0 -30 24 -30q11 0 26.5 8t21.5 16z" />
    <glyph glyph-name="SF410000" unicode="&#x2566;" horiz-adv-x="431" 
d="M16 150v180q0 97 63 133q47 27 153 27q208 0 208 -136v-150h-244v-48q0 -48 30 -48q12 0 21 9t9 21v42h184v-124q-29 -29 -104 -49q-65 -17 -116 -17q-204 0 -204 160zM196 312h72q0 31 -4 43q-8 21 -32 21q-36 0 -36 -64z" />
    <glyph glyph-name="SF450000" unicode="&#x2567;" horiz-adv-x="314" 
d="M18 480h204v-312q0 -54 22 -54v-112h-226v106q18 10 18 34v176q0 31 -18 46v116zM24 588q0 37 33 58q28 18 67 18q40 0 67 -18q31 -20 31 -58q0 -41 -32 -62q-27 -18 -70 -18q-38 0 -65 21q-31 23 -31 59z" />
    <glyph glyph-name="SF460000" unicode="&#x2568;" horiz-adv-x="314" 
 />
    <glyph glyph-name="SF400000" unicode="&#x2569;" horiz-adv-x="498" 
d="M10 168v168q0 96 63 130q46 24 153 24q110 0 153 -23q61 -33 61 -131v-180q0 -100 -60 -135q-44 -25 -154 -25q-112 0 -157 29q-59 38 -59 143zM262 156v186q0 40 -36 40t-36 -46v-180q0 -48 36 -48t36 48z" />
    <glyph glyph-name="SF540000" unicode="&#x256a;" horiz-adv-x="557" 
d="M8 480h192q16 -19 16 -60v-204q0 -94 32 -94q11 0 28 10v198q0 31 -24 46v104h210v-312q0 -43 22 -60v-106h-208v24q-30 -30 -108 -30q-77 0 -108 36q-28 33 -28 112v180q0 36 -24 52v104z" />
    <glyph glyph-name="SF530000" unicode="&#x256b;" horiz-adv-x="497" 
d="M-2 480h240v-110q-20 0 -20 -22q0 -13 5 -29q9 -29 9 -31l24 -78l18 78q3 20 10 60q0 22 -16 22v110h202v-110q-15 -10 -42 -94l-96 -298q-23 -70 -31 -85q-22 -39 -69 -57q-31 -12 -70 -12q-43 0 -86 16v108q61 0 72 48l-90 250l-21.5 66.5t-38.5 57.5v110z" />
    <glyph glyph-name="circle" unicode="&#x25cb;" horiz-adv-x="718" 
 />
    <glyph glyph-name="H18533" unicode="&#x25cf;" horiz-adv-x="718" 
d="M353 1085h130l44 -126h-92z" />
    <glyph glyph-name="invbullet" unicode="&#x25d8;" horiz-adv-x="718" 
d="M614 903q9 29 11 64q1 11 8 13q3 0 8 1q67 11 67 54q0 35 -28 35q-5 0 -14 -1t-14 -1q-21 0 -21 18q0 28 32 28q46 0 76 -25.5t26 -70.5q-6 -59 -87 -81q-25 -7 -31 -34h-33z" />
    <glyph glyph-name="invcircle" unicode="&#x25d9;" horiz-adv-x="718" 
 />
    <glyph glyph-name="glyph275" horiz-adv-x="249" 
 />
    <glyph glyph-name="glyph276" horiz-adv-x="249" 
 />
    <glyph glyph-name="ch270" unicode="&#xb7;" horiz-adv-x="249" 
d="M38 348q0 34 23 57t57 23t57.5 -23t23.5 -57t-23.5 -57.5t-57.5 -23.5t-57 23.5t-23 57.5z" />
    <glyph glyph-name="ch270" unicode="&#x2219;" horiz-adv-x="249" 
d="M38 348q0 34 23 57t57 23t57.5 -23t23.5 -57t-23.5 -57.5t-57.5 -23.5t-57 23.5t-23 57.5z" />
    <glyph glyph-name="euro" horiz-adv-x="498" 
d="M522 633l-23 -156l-48 6q0 157 -94 157q-103 0 -161 -211h172l-21 -48h-164q-6 -24 -16 -73h147l-21 -47h-134q-6 -41 -6 -74q0 -56 21 -91q26 -43 78 -43q58 0 101 68q24 38 51 119l55 -10l-54 -188q-77 -53 -159 -53q-111 0 -166 84q-47 71 -47 188h-74l21 47h56
q3 25 12 73h-66l21 48h59q41 112 108 183q83 88 187 88q94 0 165 -67z" />
    <glyph glyph-name="glyph261" horiz-adv-x="500" 
d="M253 522q9 29 11 64q1 11 8 13q3 0 8 1q67 11 67 54q0 35 -28 35q-5 0 -14 -1t-14 -1q-21 0 -21 18q0 28 32 28q46 0 76 -25.5t26 -70.5q-6 -59 -87 -81q-25 -7 -31 -34h-33z" />
    <glyph glyph-name="glyph262" horiz-adv-x="541" 
 />
    <glyph glyph-name="glyph263" horiz-adv-x="541" 
d="M150 853h130l44 -126h-92z" />
    <glyph glyph-name="glyph264" horiz-adv-x="541" 
d="M411 671q9 29 11 64q1 11 8 13q3 0 8 1q67 11 67 54q0 35 -28 35q-5 0 -14 -1t-14 -1q-21 0 -21 18q0 28 32 28q46 0 76 -25.5t26 -70.5q-6 -59 -87 -81q-25 -7 -31 -34h-33z" />
    <glyph glyph-name="glyph265" horiz-adv-x="541" 
 />
    <glyph glyph-name="glyph266" horiz-adv-x="541" 
 />
    <glyph glyph-name="glyph267" horiz-adv-x="541" 
d="M97 853h130l44 -126h-92z" />
    <glyph glyph-name="glyph268" horiz-adv-x="541" 
d="M306 671q9 29 11 64q1 11 8 13q3 0 8 1q67 11 67 54q0 35 -28 35q-5 0 -14 -1t-14 -1q-21 0 -21 18q0 28 32 28q46 0 76 -25.5t26 -70.5q-6 -59 -87 -81q-25 -7 -31 -34h-33z" />
    <glyph glyph-name="glyph269" horiz-adv-x="541" 
 />
    <glyph glyph-name="glyph270" horiz-adv-x="249" 
 />
    <glyph glyph-name="glyph271" unicode="&#x102;" horiz-adv-x="556" 
d="M410 652l90 -472q9 -47 36 -66v-112h-256v112q22 18 22 60h-100q0 -42 24 -60v-112h-222v118q22 22 30 66l84 466h292zM280 300l-30 190l-30 -190h60zM130 796h86q0 -20 50 -20q52 0 52 20h74q0 -49 -43 -74q-35 -20 -87 -20q-43 0 -79 17q-53 25 -53 77z" />
    <glyph glyph-name="glyph272" unicode="&#x103;" horiz-adv-x="502" 
d="M34 432q77 58 220 58q80 0 132 -30q64 -38 64 -112v-192q0 -20 7.5 -30t16.5 -18v-106h-196v36l-47 -30q-35 -18 -79 -18q-67 0 -104.5 37t-37.5 105q0 54 36 91q33 35 88 47l132 42v24q0 40 -24 40h-8q-34 0 -34 -64h-166v120zM266 144v56q-25 -6 -36 -11
q-36 -16 -36 -39q0 -30 24 -30q11 0 26.5 8t21.5 16zM122 634h86q0 -20 50 -20q52 0 52 20h74q0 -49 -43 -74q-35 -20 -87 -20q-43 0 -79 17q-53 25 -53 77z" />
    <glyph glyph-name="glyph273" unicode="&#x128;" horiz-adv-x="318" 
d="M22 652h256v-114q-24 -18 -24 -64v-288q0 -29 3 -40q4 -15 21 -32v-112h-256v112q22 19 22 54v324q0 33 -22 46v114zM79 706h-72q0 42 30 72t72 30q8 0 56 -12q24 -6 36 -6q20 0 26 12h66q0 -38 -26.5 -70t-63.5 -32q-18 0 -52 10t-48 10q-18 0 -24 -14z" />
    <glyph glyph-name="glyph274" unicode="&#x129;" horiz-adv-x="276" 
d="M18 480h204v-312q0 -54 22 -54v-112h-226v106q18 10 18 34v176q0 31 -18 46v116zM59 536h-72q0 42 30 72t72 30q8 0 56 -12q24 -6 36 -6q20 0 26 12h66q0 -38 -26.5 -70t-63.5 -32q-18 0 -52 10t-48 10q-18 0 -24 -14z" />
    <glyph glyph-name="ch903" unicode="&#x168;" horiz-adv-x="564" 
d="M16 652h252v-120q-24 -12 -24 -70v-252q0 -40 1 -46q5 -32 39 -32q36 0 36 50v298q0 43 -24 52v120h246v-120q-30 -18 -30 -88v-244q0 -72 -21 -115q-25 -50 -87 -77q-46 -20 -124 -20q-86 0 -132 20q-108 47 -108 170v300q0 40 -24 54v120zM204 707h-72q0 42 30 72
t72 30q15 0 45.5 -9t46.5 -9q20 0 26 12h68q0 -37 -27 -69.5t-63 -32.5q-18 0 -42 6q-55 14 -60 14q-18 0 -24 -14z" />
    <glyph glyph-name="ch904" unicode="&#x169;" horiz-adv-x="522" 
d="M8 480h192q16 -19 16 -60v-204q0 -94 32 -94q11 0 28 10v198q0 31 -24 46v104h210v-312q0 -43 22 -60v-106h-208v24q-30 -30 -108 -30q-77 0 -108 36q-28 33 -28 112v180q0 36 -24 52v104zM174 538h-72q0 42 30 72t72 30q15 0 45.5 -9t46.5 -9q20 0 26 12h68
q0 -37 -27 -69.5t-63 -32.5q-18 0 -42 6q-55 14 -60 14q-18 0 -24 -14z" />
    <glyph glyph-name="glyph277" unicode="&#x1a0;" horiz-adv-x="564" 
d="M502 564q16 -32 16 -90v-294q0 -107 -67 -153q-56 -37 -171 -37q-121 0 -181 44q-71 51 -71 166v268q0 196 252 196q143 0 196 -56q23 26 28 46q-31 0 -52.5 21.5t-21.5 52.5t21.5 50.5t52.5 19.5q40 0 64 -23t24 -63q0 -33 -14 -64q-29 -49 -76 -84zM314 194v274
q0 26 -1 31q-4 21 -33 21q-42 0 -42 -52v-274q0 -62 42 -62q34 0 34 62z" />
    <glyph glyph-name="glyph278" unicode="&#x1a1;" horiz-adv-x="482" 
d="M430 410q10 -23 10 -74v-180q0 -100 -60 -135q-44 -25 -154 -25q-112 0 -157 29q-59 38 -59 143v168q0 96 63 130q46 24 153 24q138 0 182 -44q21 21 26 40q-26 0 -44 18t-18 44q0 25 18.5 40.5t43.5 15.5q72 0 72 -70q0 -25 -12 -52q-28 -47 -64 -72zM262 156v186
q0 40 -36 40t-36 -46v-180q0 -48 36 -48t36 48z" />
    <glyph glyph-name="glyph279" unicode="&#x1af;" horiz-adv-x="564" 
d="M512 586v-386q0 -72 -21 -115q-25 -50 -87 -77q-46 -20 -124 -20q-86 0 -132 20q-108 47 -108 170v300q0 40 -24 54v120h252v-120q-24 -12 -24 -70v-252q0 -40 1 -46q5 -32 39 -32q36 0 36 50v298q0 43 -24 52v120h210q16 19 18 32q-31 0 -52.5 21.5t-21.5 52.5
t21.5 50.5t52.5 19.5q40 0 64 -23t24 -63q0 -33 -14 -64q-36 -61 -86 -92z" />
    <glyph glyph-name="glyph280" unicode="&#x1b0;" horiz-adv-x="522" 
d="M462 468q17 20 19 22q10 14 13 26q-26 0 -44 18t-18 44q0 25 18.5 40.5t43.5 15.5q72 0 72 -70q0 -25 -12 -52q-28 -47 -74 -78l-18 -12v-254q0 -43 22 -60v-106h-208v24q-30 -30 -108 -30q-77 0 -108 36q-28 33 -28 112v180q0 36 -24 52v104h192q16 -19 16 -60v-204
q0 -94 32 -94q11 0 28 10v198q0 31 -24 46v104h210v-12z" />
    <glyph glyph-name="glyph281" unicode="&#x1ea0;" horiz-adv-x="556" 
d="M410 652l90 -472q9 -47 36 -66v-112h-256v112q22 18 22 60h-100q0 -42 24 -60v-112h-222v118q22 22 30 66l84 466h292zM280 300l-30 190l-30 -190h60zM199 -108q0 27 18.5 42.5t45.5 15.5t46.5 -15.5t19.5 -42.5q0 -30 -17.5 -52t-46.5 -22t-47.5 22.5t-18.5 51.5z" />
    <glyph glyph-name="glyph282" unicode="&#x1ea1;" horiz-adv-x="502" 
d="M34 432q77 58 220 58q80 0 132 -30q64 -38 64 -112v-192q0 -20 7.5 -30t16.5 -18v-106h-196v36l-47 -30q-35 -18 -79 -18q-67 0 -104.5 37t-37.5 105q0 54 36 91q33 35 88 47l132 42v24q0 40 -24 40h-8q-34 0 -34 -64h-166v120zM266 144v56q-25 -6 -36 -11
q-36 -16 -36 -39q0 -30 24 -30q11 0 26.5 8t21.5 16zM187 -108q0 27 18.5 42.5t45.5 15.5t46.5 -15.5t19.5 -42.5q0 -30 -17.5 -52t-46.5 -22t-47.5 22.5t-18.5 51.5z" />
    <glyph glyph-name="glyph283" unicode="&#x1ea2;" horiz-adv-x="556" 
d="M410 652l90 -472q9 -47 36 -66v-112h-256v112q22 18 22 60h-100q0 -42 24 -60v-112h-222v118q22 22 30 66l84 466h292zM280 300l-30 190l-30 -190h60zM158 822v20q5 41 36 64q28 20 71 20h15q97 0 106 -84v-8q0 -33 -17 -53q-9 -10 -34 -27q-31 -15 -31 -44v-8h-58v40
q0 13 21 41l30 39v14q0 22 -21 22h-17q-21 0 -21 -22v-14h-80z" />
    <glyph glyph-name="glyph284" unicode="&#x1ea3;" horiz-adv-x="502" 
d="M34 432q77 58 220 58q80 0 132 -30q64 -38 64 -112v-192q0 -20 7.5 -30t16.5 -18v-106h-196v36l-47 -30q-35 -18 -79 -18q-67 0 -104.5 37t-37.5 105q0 54 36 91q33 35 88 47l132 42v24q0 40 -24 40h-8q-34 0 -34 -64h-166v120zM266 144v56q-25 -6 -36 -11
q-36 -16 -36 -39q0 -30 24 -30q11 0 26.5 8t21.5 16zM133 660v20q5 41 36 64q28 20 71 20h15q97 0 106 -84v-8q0 -33 -17 -53q-9 -10 -34 -27q-31 -15 -31 -44v-8h-58v40q0 13 21 41l30 39v14q0 22 -21 22h-17q-21 0 -21 -22v-14h-80z" />
    <glyph glyph-name="glyph285" unicode="&#x1ea4;" horiz-adv-x="556" 
d="M410 652l90 -472q9 -47 36 -66v-112h-256v112q22 18 22 60h-100q0 -42 24 -60v-112h-222v118q22 22 30 66l84 466h292zM280 300l-30 190l-30 -190h60zM267 752l-30 -50h-108l90 126h90l88 -126h-100zM369 795l57 144h123l-92 -144h-88z" />
    <glyph glyph-name="glyph286" unicode="&#x1ea5;" horiz-adv-x="502" 
d="M34 432q77 58 220 58q80 0 132 -30q64 -38 64 -112v-192q0 -20 7.5 -30t16.5 -18v-106h-196v36l-47 -30q-35 -18 -79 -18q-67 0 -104.5 37t-37.5 105q0 54 36 91q33 35 88 47l132 42v24q0 40 -24 40h-8q-34 0 -34 -64h-166v120zM266 144v56q-25 -6 -36 -11
q-36 -16 -36 -39q0 -30 24 -30q11 0 26.5 8t21.5 16zM255 590l-30 -50h-108l90 126h90l88 -126h-100zM357 633l57 144h123l-92 -144h-88z" />
    <glyph glyph-name="glyph287" unicode="&#x1ea6;" horiz-adv-x="556" 
d="M410 652l90 -472q9 -47 36 -66v-112h-256v112q22 18 22 60h-100q0 -42 24 -60v-112h-222v118q22 22 30 66l84 466h292zM280 300l-30 190l-30 -190h60zM266 752l-30 -50h-108l90 126h90l88 -126h-100zM284 954h130l47 -144h-86z" />
    <glyph glyph-name="glyph288" unicode="&#x1ea7;" horiz-adv-x="502" 
d="M34 432q77 58 220 58q80 0 132 -30q64 -38 64 -112v-192q0 -20 7.5 -30t16.5 -18v-106h-196v36l-47 -30q-35 -18 -79 -18q-67 0 -104.5 37t-37.5 105q0 54 36 91q33 35 88 47l132 42v24q0 40 -24 40h-8q-34 0 -34 -64h-166v120zM266 144v56q-25 -6 -36 -11
q-36 -16 -36 -39q0 -30 24 -30q11 0 26.5 8t21.5 16zM256 591l-30 -50h-108l90 126h90l88 -126h-100zM274 793h130l47 -144h-86z" />
    <glyph glyph-name="glyph289" unicode="&#x1ea8;" horiz-adv-x="556" 
d="M410 652l90 -472q9 -47 36 -66v-112h-256v112q22 18 22 60h-100q0 -42 24 -60v-112h-222v118q22 22 30 66l84 466h292zM280 300l-30 190l-30 -190h60zM268 752l-30 -50h-108l90 126h90l88 -126h-100zM292 896v20q5 41 36 64q28 20 71 20h15q97 0 106 -84v-8
q0 -33 -17 -53q-9 -10 -34 -27q-30 -15 -30 -52h-59v40q0 13 21 41l30 39v14q0 22 -21 22h-17q-21 0 -21 -22v-14h-80z" />
    <glyph glyph-name="glyph290" unicode="&#x1ea9;" horiz-adv-x="502" 
d="M34 432q77 58 220 58q80 0 132 -30q64 -38 64 -112v-192q0 -20 7.5 -30t16.5 -18v-106h-196v36l-47 -30q-35 -18 -79 -18q-67 0 -104.5 37t-37.5 105q0 54 36 91q33 35 88 47l132 42v24q0 40 -24 40h-8q-34 0 -34 -64h-166v120zM266 144v56q-25 -6 -36 -11
q-36 -16 -36 -39q0 -30 24 -30q11 0 26.5 8t21.5 16zM257 591l-30 -50h-108l90 126h90l88 -126h-100zM281 735v20q5 41 36 64q28 20 71 20h15q97 0 106 -84v-8q0 -33 -17 -53q-9 -10 -34 -27q-30 -15 -30 -52h-59v40q0 13 21 41l30 39v14q0 22 -21 22h-17q-21 0 -21 -22v-14
h-80z" />
    <glyph glyph-name="glyph291" unicode="&#x1eaa;" horiz-adv-x="556" 
d="M410 652l90 -472q9 -47 36 -66v-112h-256v112q22 18 22 60h-100q0 -42 24 -60v-112h-222v118q22 22 30 66l84 466h292zM280 300l-30 190l-30 -190h60zM267 752l-30 -50h-108l90 126h90l88 -126h-100zM197 870h-72q0 42 30 72t72 30q15 0 45.5 -9t46.5 -9q20 0 26 12h68
q0 -37 -27 -69.5t-63 -32.5q-18 0 -42 6q-55 14 -60 14q-18 0 -24 -14z" />
    <glyph glyph-name="glyph292" unicode="&#x1eab;" horiz-adv-x="502" 
d="M34 432q77 58 220 58q80 0 132 -30q64 -38 64 -112v-192q0 -20 7.5 -30t16.5 -18v-106h-196v36l-47 -30q-35 -18 -79 -18q-67 0 -104.5 37t-37.5 105q0 54 36 91q33 35 88 47l132 42v24q0 40 -24 40h-8q-34 0 -34 -64h-166v120zM266 144v56q-25 -6 -36 -11
q-36 -16 -36 -39q0 -30 24 -30q11 0 26.5 8t21.5 16zM254 591l-30 -50h-108l90 126h90l88 -126h-100zM184 709h-72q0 42 30 72t72 30q15 0 45.5 -9t46.5 -9q20 0 26 12h68q0 -37 -27 -69.5t-63 -32.5q-18 0 -42 6q-55 14 -60 14q-18 0 -24 -14z" />
    <glyph glyph-name="glyph293" unicode="&#x1eac;" horiz-adv-x="556" 
d="M410 652l90 -472q9 -47 36 -66v-112h-256v112q22 18 22 60h-100q0 -42 24 -60v-112h-222v118q22 22 30 66l84 466h292zM280 300l-30 190l-30 -190h60zM266 752l-30 -50h-108l90 126h90l88 -126h-100zM195 -108q0 27 18.5 42.5t45.5 15.5t46.5 -15.5t19.5 -42.5
q0 -30 -17.5 -52t-46.5 -22t-47.5 22.5t-18.5 51.5z" />
    <glyph glyph-name="glyph294" unicode="&#x1ead;" horiz-adv-x="502" 
d="M34 432q77 58 220 58q80 0 132 -30q64 -38 64 -112v-192q0 -20 7.5 -30t16.5 -18v-106h-196v36l-47 -30q-35 -18 -79 -18q-67 0 -104.5 37t-37.5 105q0 54 36 91q33 35 88 47l132 42v24q0 40 -24 40h-8q-34 0 -34 -64h-166v120zM266 144v56q-25 -6 -36 -11
q-36 -16 -36 -39q0 -30 24 -30q11 0 26.5 8t21.5 16zM253 591l-30 -50h-108l90 126h90l88 -126h-100zM189 -115q0 27 18.5 42.5t45.5 15.5t46.5 -15.5t19.5 -42.5q0 -30 -17.5 -52t-46.5 -22t-47.5 22.5t-18.5 51.5z" />
    <glyph glyph-name="glyph295" unicode="&#x1eae;" horiz-adv-x="556" 
d="M410 652l90 -472q9 -47 36 -66v-112h-256v112q22 18 22 60h-100q0 -42 24 -60v-112h-222v118q22 22 30 66l84 466h292zM280 300l-30 190l-30 -190h60zM137 796h86q0 -20 50 -20q52 0 52 20h74q0 -49 -43 -74q-35 -20 -87 -20q-43 0 -79 17q-53 25 -53 77zM227 840l44 114
h124l-76 -114h-92z" />
    <glyph glyph-name="glyph296" unicode="&#x1eaf;" horiz-adv-x="502" 
d="M34 432q77 58 220 58q80 0 132 -30q64 -38 64 -112v-192q0 -20 7.5 -30t16.5 -18v-106h-196v36l-47 -30q-35 -18 -79 -18q-67 0 -104.5 37t-37.5 105q0 54 36 91q33 35 88 47l132 42v24q0 40 -24 40h-8q-34 0 -34 -64h-166v120zM266 144v56q-25 -6 -36 -11
q-36 -16 -36 -39q0 -30 24 -30q11 0 26.5 8t21.5 16zM122 634h86q0 -20 50 -20q52 0 52 20h74q0 -49 -43 -74q-35 -20 -87 -20q-43 0 -79 17q-53 25 -53 77zM212 678l44 114h124l-76 -114h-92z" />
    <glyph glyph-name="glyph297" unicode="&#x1eb0;" horiz-adv-x="556" 
d="M410 652l90 -472q9 -47 36 -66v-112h-256v112q22 18 22 60h-100q0 -42 24 -60v-112h-222v118q22 22 30 66l84 466h292zM280 300l-30 190l-30 -190h60zM134 796h86q0 -20 50 -20q52 0 52 20h74q0 -49 -43 -74q-35 -20 -87 -20q-43 0 -79 17q-53 25 -53 77zM142 960h132
l40 -126h-88z" />
    <glyph glyph-name="glyph298" unicode="&#x1eb1;" horiz-adv-x="502" 
d="M34 432q77 58 220 58q80 0 132 -30q64 -38 64 -112v-192q0 -20 7.5 -30t16.5 -18v-106h-196v36l-47 -30q-35 -18 -79 -18q-67 0 -104.5 37t-37.5 105q0 54 36 91q33 35 88 47l132 42v24q0 40 -24 40h-8q-34 0 -34 -64h-166v120zM266 144v56q-25 -6 -36 -11
q-36 -16 -36 -39q0 -30 24 -30q11 0 26.5 8t21.5 16zM122 634h86q0 -20 50 -20q52 0 52 20h74q0 -49 -43 -74q-35 -20 -87 -20q-43 0 -79 17q-53 25 -53 77zM130 798h132l40 -126h-88z" />
    <glyph glyph-name="glyph299" unicode="&#x1eb2;" horiz-adv-x="556" 
d="M410 652l90 -472q9 -47 36 -66v-112h-256v112q22 18 22 60h-100q0 -42 24 -60v-112h-222v118q22 22 30 66l84 466h292zM280 300l-30 190l-30 -190h60zM135 796h86q0 -20 50 -20q52 0 52 20h74q0 -49 -43 -74q-35 -20 -87 -20q-43 0 -79 17q-53 25 -53 77zM163 926v20
q5 41 36 64q28 20 71 20h15q97 0 106 -84v-8q0 -33 -17 -53q-9 -10 -34 -27q-36 -17 -36 -50l-53 -2v40q0 13 21 41l30 39v14q0 22 -21 22h-17q-21 0 -21 -22v-14h-80z" />
    <glyph glyph-name="glyph300" unicode="&#x1eb3;" horiz-adv-x="502" 
d="M34 432q77 58 220 58q80 0 132 -30q64 -38 64 -112v-192q0 -20 7.5 -30t16.5 -18v-106h-196v36l-47 -30q-35 -18 -79 -18q-67 0 -104.5 37t-37.5 105q0 54 36 91q33 35 88 47l132 42v24q0 40 -24 40h-8q-34 0 -34 -64h-166v120zM266 144v56q-25 -6 -36 -11
q-36 -16 -36 -39q0 -30 24 -30q11 0 26.5 8t21.5 16zM122 633h86q0 -20 50 -20q52 0 52 20h74q0 -49 -43 -74q-35 -20 -87 -20q-43 0 -79 17q-53 25 -53 77zM150 763v20q5 41 36 64q28 20 71 20h15q97 0 106 -84v-8q0 -33 -17 -53q-9 -10 -34 -27q-36 -17 -36 -50l-53 -2v40
q0 13 21 41l30 39v14q0 22 -21 22h-17q-21 0 -21 -22v-14h-80z" />
    <glyph glyph-name="glyph301" unicode="&#x1eb4;" horiz-adv-x="556" 
d="M410 652l90 -472q9 -47 36 -66v-112h-256v112q22 18 22 60h-100q0 -42 24 -60v-112h-222v118q22 22 30 66l84 466h292zM280 300l-30 190l-30 -190h60zM134 796h86q0 -20 50 -20q52 0 52 20h74q0 -49 -43 -74q-35 -20 -87 -20q-43 0 -79 17q-53 25 -53 77zM298 846h-72
q0 42 30 72t72 30q8 0 56 -12q24 -6 36 -6q20 0 26 12h66q0 -38 -26.5 -70t-63.5 -32q-18 0 -52 10t-48 10q-18 0 -24 -14z" />
    <glyph glyph-name="glyph302" unicode="&#x1eb5;" horiz-adv-x="502" 
d="M34 432q77 58 220 58q80 0 132 -30q64 -38 64 -112v-192q0 -20 7.5 -30t16.5 -18v-106h-196v36l-47 -30q-35 -18 -79 -18q-67 0 -104.5 37t-37.5 105q0 54 36 91q33 35 88 47l132 42v24q0 40 -24 40h-8q-34 0 -34 -64h-166v120zM266 144v56q-25 -6 -36 -11
q-36 -16 -36 -39q0 -30 24 -30q11 0 26.5 8t21.5 16zM120 632h86q0 -20 50 -20q52 0 52 20h74q0 -49 -43 -74q-35 -20 -87 -20q-43 0 -79 17q-53 25 -53 77zM284 682h-72q0 42 30 72t72 30q8 0 56 -12q24 -6 36 -6q20 0 26 12h66q0 -38 -26.5 -70t-63.5 -32q-18 0 -52 10
t-48 10q-18 0 -24 -14z" />
    <glyph glyph-name="glyph303" unicode="&#x1eb6;" horiz-adv-x="556" 
d="M410 652l90 -472q9 -47 36 -66v-112h-256v112q22 18 22 60h-100q0 -42 24 -60v-112h-222v118q22 22 30 66l84 466h292zM280 300l-30 190l-30 -190h60zM132 794h86q0 -20 50 -20q52 0 52 20h74q0 -49 -43 -74q-35 -20 -87 -20q-43 0 -79 17q-53 25 -53 77zM210 -108
q0 27 18.5 42.5t45.5 15.5t46.5 -15.5t19.5 -42.5q0 -30 -17.5 -52t-46.5 -22t-47.5 22.5t-18.5 51.5z" />
    <glyph glyph-name="glyph304" unicode="&#x1eb7;" horiz-adv-x="502" 
d="M34 432q77 58 220 58q80 0 132 -30q64 -38 64 -112v-192q0 -20 7.5 -30t16.5 -18v-106h-196v36l-47 -30q-35 -18 -79 -18q-67 0 -104.5 37t-37.5 105q0 54 36 91q33 35 88 47l132 42v24q0 40 -24 40h-8q-34 0 -34 -64h-166v120zM266 144v56q-25 -6 -36 -11
q-36 -16 -36 -39q0 -30 24 -30q11 0 26.5 8t21.5 16zM122 634h86q0 -20 50 -20q52 0 52 20h74q0 -49 -43 -74q-35 -20 -87 -20q-43 0 -79 17q-53 25 -53 77zM190 -117q0 27 18.5 42.5t45.5 15.5t46.5 -15.5t19.5 -42.5q0 -30 -17.5 -52t-46.5 -22t-47.5 22.5t-18.5 51.5z
" />
    <glyph glyph-name="glyph305" unicode="&#x1eb8;" horiz-adv-x="542" 
d="M24 652h490v-226h-192v42q0 40 -54 40h-18v-118h132v-126h-132v-126l16 -2q56 0 56 50v48h192v-232h-490v118q18 10 18 36v328q0 36 -18 54v114zM187 -129q0 34 23 57t57 23t57.5 -23t23.5 -57t-23.5 -57.5t-57.5 -23.5t-57 23.5t-23 57.5z" />
    <glyph glyph-name="glyph306" unicode="&#x1eb9;" horiz-adv-x="482" 
d="M16 150v180q0 97 63 133q47 27 153 27q208 0 208 -136v-150h-244v-48q0 -48 30 -48q12 0 21 9t9 21v42h184v-124q-29 -29 -104 -49q-65 -17 -116 -17q-204 0 -204 160zM196 312h72q0 31 -4 43q-8 21 -32 21q-36 0 -36 -64zM146 -142q0 34 23 57t57 23t57.5 -23t23.5 -57
t-23.5 -57.5t-57.5 -23.5t-57 23.5t-23 57.5z" />
    <glyph glyph-name="glyph307" unicode="&#x1eba;" horiz-adv-x="542" 
d="M24 652h490v-226h-192v42q0 40 -54 40h-18v-118h132v-126h-132v-126l16 -2q56 0 56 50v48h192v-232h-490v118q18 10 18 36v328q0 36 -18 54v114zM153 822v20q5 41 36 64q28 20 71 20h15q97 0 106 -84v-8q0 -33 -17 -53q-9 -10 -34 -27q-31 -15 -31 -44v-8h-58v40
q0 13 21 41l30 39v14q0 22 -21 22h-17q-21 0 -21 -22v-14h-80z" />
    <glyph glyph-name="glyph308" unicode="&#x1ebb;" horiz-adv-x="482" 
d="M16 150v180q0 97 63 133q47 27 153 27q208 0 208 -136v-150h-244v-48q0 -48 30 -48q12 0 21 9t9 21v42h184v-124q-29 -29 -104 -49q-65 -17 -116 -17q-204 0 -204 160zM196 312h72q0 31 -4 43q-8 21 -32 21q-36 0 -36 -64zM112 660v20q5 41 36 64q28 20 71 20h15
q97 0 106 -84v-8q0 -33 -17 -53q-9 -10 -34 -27q-31 -15 -31 -44v-8h-58v40q0 13 21 41l30 39v14q0 22 -21 22h-17q-21 0 -21 -22v-14h-80z" />
    <glyph glyph-name="glyph309" unicode="&#x1ebc;" horiz-adv-x="542" 
d="M24 652h490v-226h-192v42q0 40 -54 40h-18v-118h132v-126h-132v-126l16 -2q56 0 56 50v48h192v-232h-490v118q18 10 18 36v328q0 36 -18 54v114zM207 707h-72q0 42 30 72t72 30q15 0 45.5 -9t46.5 -9q20 0 26 12h68q0 -37 -27 -69.5t-63 -32.5q-18 0 -42 6q-55 14 -60 14
q-18 0 -24 -14z" />
    <glyph glyph-name="glyph310" unicode="&#x1ebd;" horiz-adv-x="482" 
d="M16 150v180q0 97 63 133q47 27 153 27q208 0 208 -136v-150h-244v-48q0 -48 30 -48q12 0 21 9t9 21v42h184v-124q-29 -29 -104 -49q-65 -17 -116 -17q-204 0 -204 160zM196 312h72q0 31 -4 43q-8 21 -32 21q-36 0 -36 -64zM155 546h-72q0 42 30 72t72 30q15 0 45.5 -9
t46.5 -9q20 0 26 12h68q0 -37 -27 -69.5t-63 -32.5q-18 0 -42 6q-55 14 -60 14q-18 0 -24 -14z" />
    <glyph glyph-name="glyph311" unicode="&#x1ebe;" horiz-adv-x="542" 
d="M24 652h490v-226h-192v42q0 40 -54 40h-18v-118h132v-126h-132v-126l16 -2q56 0 56 50v48h192v-232h-490v118q18 10 18 36v328q0 36 -18 54v114zM265 752l-30 -50h-108l90 126h90l88 -126h-100zM367 795l57 144h123l-92 -144h-88z" />
    <glyph glyph-name="glyph312" unicode="&#x1ebf;" horiz-adv-x="482" 
d="M16 150v180q0 97 63 133q47 27 153 27q208 0 208 -136v-150h-244v-48q0 -48 30 -48q12 0 21 9t9 21v42h184v-124q-29 -29 -104 -49q-65 -17 -116 -17q-204 0 -204 160zM196 312h72q0 31 -4 43q-8 21 -32 21q-36 0 -36 -64zM236 590l-30 -50h-108l90 126h90l88 -126h-100z
M338 633l57 144h123l-92 -144h-88z" />
    <glyph glyph-name="glyph313" unicode="&#x1ec0;" horiz-adv-x="542" 
d="M24 652h490v-226h-192v42q0 40 -54 40h-18v-118h132v-126h-132v-126l16 -2q56 0 56 50v48h192v-232h-490v118q18 10 18 36v328q0 36 -18 54v114zM264 752l-30 -50h-108l90 126h90l88 -126h-100zM282 954h130l47 -144h-86z" />
    <glyph glyph-name="glyph314" unicode="&#x1ec1;" horiz-adv-x="482" 
d="M16 150v180q0 97 63 133q47 27 153 27q208 0 208 -136v-150h-244v-48q0 -48 30 -48q12 0 21 9t9 21v42h184v-124q-29 -29 -104 -49q-65 -17 -116 -17q-204 0 -204 160zM196 312h72q0 31 -4 43q-8 21 -32 21q-36 0 -36 -64zM234 590l-30 -50h-108l90 126h90l88 -126h-100z
M252 792h130l47 -144h-86z" />
    <glyph glyph-name="glyph315" unicode="&#x1ec2;" horiz-adv-x="542" 
d="M24 652h490v-226h-192v42q0 40 -54 40h-18v-118h132v-126h-132v-126l16 -2q56 0 56 50v48h192v-232h-490v118q18 10 18 36v328q0 36 -18 54v114zM270 752l-30 -50h-108l90 126h90l88 -126h-100zM294 896v20q5 41 36 64q28 20 71 20h15q97 0 106 -84v-8q0 -33 -17 -53
q-9 -10 -34 -27q-30 -15 -30 -52h-59v40q0 13 21 41l30 39v14q0 22 -21 22h-17q-21 0 -21 -22v-14h-80z" />
    <glyph glyph-name="glyph316" unicode="&#x1ec3;" horiz-adv-x="482" 
d="M16 150v180q0 97 63 133q47 27 153 27q208 0 208 -136v-150h-244v-48q0 -48 30 -48q12 0 21 9t9 21v42h184v-124q-29 -29 -104 -49q-65 -17 -116 -17q-204 0 -204 160zM196 312h72q0 31 -4 43q-8 21 -32 21q-36 0 -36 -64zM234 590l-30 -50h-108l90 126h90l88 -126h-100z
M258 734v20q5 41 36 64q28 20 71 20h15q97 0 106 -84v-8q0 -33 -17 -53q-9 -10 -34 -27q-30 -15 -30 -52h-59v40q0 13 21 41l30 39v14q0 22 -21 22h-17q-21 0 -21 -22v-14h-80z" />
    <glyph glyph-name="glyph317" unicode="&#x1ec4;" horiz-adv-x="542" 
d="M24 652h490v-226h-192v42q0 40 -54 40h-18v-118h132v-126h-132v-126l16 -2q56 0 56 50v48h192v-232h-490v118q18 10 18 36v328q0 36 -18 54v114zM267 752l-30 -50h-108l90 126h90l88 -126h-100zM197 870h-72q0 42 30 72t72 30q15 0 45.5 -9t46.5 -9q20 0 26 12h68
q0 -37 -27 -69.5t-63 -32.5q-18 0 -42 6q-55 14 -60 14q-18 0 -24 -14z" />
    <glyph glyph-name="glyph318" unicode="&#x1ec5;" horiz-adv-x="482" 
d="M16 150v180q0 97 63 133q47 27 153 27q208 0 208 -136v-150h-244v-48q0 -48 30 -48q12 0 21 9t9 21v42h184v-124q-29 -29 -104 -49q-65 -17 -116 -17q-204 0 -204 160zM196 312h72q0 31 -4 43q-8 21 -32 21q-36 0 -36 -64zM235 590l-30 -50h-108l90 126h90l88 -126h-100z
M165 708h-72q0 42 30 72t72 30q15 0 45.5 -9t46.5 -9q20 0 26 12h68q0 -37 -27 -69.5t-63 -32.5q-18 0 -42 6q-55 14 -60 14q-18 0 -24 -14z" />
    <glyph glyph-name="glyph319" unicode="&#x1ec6;" horiz-adv-x="542" 
d="M24 652h490v-226h-192v42q0 40 -54 40h-18v-118h132v-126h-132v-126l16 -2q56 0 56 50v48h192v-232h-490v118q18 10 18 36v328q0 36 -18 54v114zM268 752l-30 -50h-108l90 126h90l88 -126h-100zM202 -108q0 27 18.5 42.5t45.5 15.5t46.5 -15.5t19.5 -42.5
q0 -30 -17.5 -52t-46.5 -22t-47.5 22.5t-18.5 51.5z" />
    <glyph glyph-name="glyph320" unicode="&#x1ec7;" horiz-adv-x="482" 
d="M16 150v180q0 97 63 133q47 27 153 27q208 0 208 -136v-150h-244v-48q0 -48 30 -48q12 0 21 9t9 21v42h184v-124q-29 -29 -104 -49q-65 -17 -116 -17q-204 0 -204 160zM196 312h72q0 31 -4 43q-8 21 -32 21q-36 0 -36 -64zM234 591l-30 -50h-108l90 126h90l88 -126h-100z
M170 -118q0 27 18.5 42.5t45.5 15.5t46.5 -15.5t19.5 -42.5q0 -30 -17.5 -52t-46.5 -22t-47.5 22.5t-18.5 51.5z" />
    <glyph glyph-name="glyph321" unicode="&#x1ec8;" horiz-adv-x="318" 
d="M22 652h256v-114q-24 -18 -24 -64v-288q0 -29 3 -40q4 -15 21 -32v-112h-256v112q22 19 22 54v324q0 33 -22 46v114zM30 820v20q5 42 38 64q30 20 74 20h16q103 0 112 -84v-8q0 -33 -18 -53q-8 -9 -36 -27q-38 -17 -38 -50l-56 -2v40q0 15 18 36l36 44v14q0 22 -22 22
h-18q-22 0 -22 -22v-14h-84z" />
    <glyph glyph-name="glyph322" unicode="&#x1ec9;" horiz-adv-x="276" 
d="M12 484h204v-304q0 -60 24 -72v-106h-228v106q24 12 24 60v126q0 70 -24 76v114zM4 636v20q5 41 36 64q28 20 71 20h15q97 0 106 -84v-8q0 -33 -17 -53q-9 -10 -34 -27q-29 -13 -29 -52h-60v40q0 16 25.5 46.5t25.5 33.5v14q0 22 -21 22h-17q-21 0 -21 -22v-14h-80z" />
    <glyph glyph-name="glyph323" unicode="&#x1eca;" horiz-adv-x="318" 
d="M22 652h256v-114q-24 -18 -24 -64v-288q0 -29 3 -40q4 -15 21 -32v-112h-256v112q22 19 22 54v324q0 33 -22 46v114zM92 -116q0 27 18.5 42.5t45.5 15.5t46.5 -15.5t19.5 -42.5q0 -30 -17.5 -52t-46.5 -22t-47.5 22.5t-18.5 51.5z" />
    <glyph glyph-name="glyph324" unicode="&#x1ecb;" horiz-adv-x="276" 
d="M18 480h204v-312q0 -54 22 -54v-112h-226v106q18 10 18 34v176q0 31 -18 46v116zM24 588q0 37 33 58q28 18 67 18q40 0 67 -18q31 -20 31 -58q0 -41 -32 -62q-27 -18 -70 -18q-38 0 -65 21q-31 23 -31 59zM62 -116q0 27 18.5 42.5t45.5 15.5t46.5 -15.5t19.5 -42.5
q0 -30 -17.5 -52t-46.5 -22t-47.5 22.5t-18.5 51.5z" />
    <glyph glyph-name="glyph325" unicode="&#x1ecc;" horiz-adv-x="564" 
d="M28 200v268q0 196 252 196q115 0 171 -37q67 -45 67 -153v-294q0 -107 -67 -153q-56 -37 -171 -37q-121 0 -181 44q-71 51 -71 166zM314 194v274q0 26 -1 31q-4 21 -33 21q-42 0 -42 -52v-274q0 -62 42 -62q34 0 34 62zM213 -119q0 27 18.5 42.5t45.5 15.5t46.5 -15.5
t19.5 -42.5q0 -30 -17.5 -52t-46.5 -22t-47.5 22.5t-18.5 51.5z" />
    <glyph glyph-name="glyph326" unicode="&#x1ecd;" horiz-adv-x="482" 
d="M10 168v168q0 96 63 130q46 24 153 24q110 0 153 -23q61 -33 61 -131v-180q0 -100 -60 -135q-44 -25 -154 -25q-112 0 -157 29q-59 38 -59 143zM262 156v186q0 40 -36 40t-36 -46v-180q0 -48 36 -48t36 48zM162 -112q0 27 18.5 42.5t45.5 15.5t46.5 -15.5t19.5 -42.5
q0 -30 -17.5 -52t-46.5 -22t-47.5 22.5t-18.5 51.5z" />
    <glyph glyph-name="glyph327" unicode="&#x1ece;" horiz-adv-x="564" 
d="M28 200v268q0 196 252 196q115 0 171 -37q67 -45 67 -153v-294q0 -107 -67 -153q-56 -37 -171 -37q-121 0 -181 44q-71 51 -71 166zM314 194v274q0 26 -1 31q-4 21 -33 21q-42 0 -42 -52v-274q0 -62 42 -62q34 0 34 62zM161 835v20q5 41 36 64q28 20 71 20h15
q97 0 106 -84v-8q0 -33 -17 -53q-9 -10 -34 -27q-31 -15 -31 -44v-8h-58v40q0 13 21 41l30 39v14q0 22 -21 22h-17q-21 0 -21 -22v-14h-80z" />
    <glyph glyph-name="glyph328" unicode="&#x1ecf;" horiz-adv-x="482" 
d="M10 168v168q0 96 63 130q46 24 153 24q110 0 153 -23q61 -33 61 -131v-180q0 -100 -60 -135q-44 -25 -154 -25q-112 0 -157 29q-59 38 -59 143zM262 156v186q0 40 -36 40t-36 -46v-180q0 -48 36 -48t36 48zM110 661v20q5 41 36 64q28 20 71 20h15q97 0 106 -84v-8
q0 -33 -17 -53q-9 -10 -34 -27q-31 -15 -31 -44v-8h-58v40q0 13 21 41l30 39v14q0 22 -21 22h-17q-21 0 -21 -22v-14h-80z" />
    <glyph glyph-name="glyph329" unicode="&#x1ed0;" horiz-adv-x="564" 
d="M28 200v268q0 196 252 196q115 0 171 -37q67 -45 67 -153v-294q0 -107 -67 -153q-56 -37 -171 -37q-121 0 -181 44q-71 51 -71 166zM314 194v274q0 26 -1 31q-4 21 -33 21q-42 0 -42 -52v-274q0 -62 42 -62q34 0 34 62zM280 761l-30 -48h-108l90 126h88l90 -126h-102z
M375 800l43 131h124l-77 -131h-90z" />
    <glyph glyph-name="glyph330" unicode="&#x1ed1;" horiz-adv-x="482" 
d="M10 168v168q0 96 63 130q46 24 153 24q110 0 153 -23q61 -33 61 -131v-180q0 -100 -60 -135q-44 -25 -154 -25q-112 0 -157 29q-59 38 -59 143zM262 156v186q0 40 -36 40t-36 -46v-180q0 -48 36 -48t36 48zM227 588l-30 -48h-108l90 126h88l90 -126h-102zM322 627l43 131
h124l-77 -131h-90z" />
    <glyph glyph-name="glyph331" unicode="&#x1ed2;" horiz-adv-x="564" 
d="M28 200v268q0 196 252 196q115 0 171 -37q67 -45 67 -153v-294q0 -107 -67 -153q-56 -37 -171 -37q-121 0 -181 44q-71 51 -71 166zM314 194v274q0 26 -1 31q-4 21 -33 21q-42 0 -42 -52v-274q0 -62 42 -62q34 0 34 62zM281 763l-30 -50h-108l90 126h90l88 -126h-100z
M299 965h130l47 -144h-86z" />
    <glyph glyph-name="glyph332" unicode="&#x1ed3;" horiz-adv-x="482" 
d="M10 168v168q0 96 63 130q46 24 153 24q110 0 153 -23q61 -33 61 -131v-180q0 -100 -60 -135q-44 -25 -154 -25q-112 0 -157 29q-59 38 -59 143zM262 156v186q0 40 -36 40t-36 -46v-180q0 -48 36 -48t36 48zM226 590l-30 -50h-108l90 126h90l88 -126h-100zM244 792h130
l47 -144h-86z" />
    <glyph glyph-name="glyph333" unicode="&#x1ed4;" horiz-adv-x="564" 
d="M28 200v268q0 196 252 196q115 0 171 -37q67 -45 67 -153v-294q0 -107 -67 -153q-56 -37 -171 -37q-121 0 -181 44q-71 51 -71 166zM314 194v274q0 26 -1 31q-4 21 -33 21q-42 0 -42 -52v-274q0 -62 42 -62q34 0 34 62zM281 763l-30 -50h-108l90 126h90l88 -126h-100z
M305 907v20q5 41 36 64q28 20 71 20h15q97 0 106 -84v-8q0 -33 -17 -53q-9 -10 -34 -27q-30 -15 -30 -52h-59v40q0 13 21 41l30 39v14q0 22 -21 22h-17q-21 0 -21 -22v-14h-80z" />
    <glyph glyph-name="glyph334" unicode="&#x1ed5;" horiz-adv-x="482" 
d="M10 168v168q0 96 63 130q46 24 153 24q110 0 153 -23q61 -33 61 -131v-180q0 -100 -60 -135q-44 -25 -154 -25q-112 0 -157 29q-59 38 -59 143zM262 156v186q0 40 -36 40t-36 -46v-180q0 -48 36 -48t36 48zM227 589l-30 -50h-108l90 126h90l88 -126h-100zM251 733v20
q5 41 36 64q28 20 71 20h15q97 0 106 -84v-8q0 -33 -17 -53q-9 -10 -34 -27q-30 -15 -30 -52h-59v40q0 13 21 41l30 39v14q0 22 -21 22h-17q-21 0 -21 -22v-14h-80z" />
    <glyph glyph-name="glyph335" unicode="&#x1ed6;" horiz-adv-x="564" 
d="M28 200v268q0 196 252 196q115 0 171 -37q67 -45 67 -153v-294q0 -107 -67 -153q-56 -37 -171 -37q-121 0 -181 44q-71 51 -71 166zM314 194v274q0 26 -1 31q-4 21 -33 21q-42 0 -42 -52v-274q0 -62 42 -62q34 0 34 62zM281 764l-30 -50h-108l90 126h90l88 -126h-100z
M211 882h-72q0 42 30 72t72 30q15 0 45.5 -9t46.5 -9q20 0 26 12h68q0 -37 -27 -69.5t-63 -32.5q-18 0 -42 6q-55 14 -60 14q-18 0 -24 -14z" />
    <glyph glyph-name="glyph336" unicode="&#x1ed7;" horiz-adv-x="482" 
d="M10 168v168q0 96 63 130q46 24 153 24q110 0 153 -23q61 -33 61 -131v-180q0 -100 -60 -135q-44 -25 -154 -25q-112 0 -157 29q-59 38 -59 143zM262 156v186q0 40 -36 40t-36 -46v-180q0 -48 36 -48t36 48zM228 588l-30 -50h-108l90 126h90l88 -126h-100zM158 706h-72
q0 42 30 72t72 30q15 0 45.5 -9t46.5 -9q20 0 26 12h68q0 -37 -27 -69.5t-63 -32.5q-18 0 -42 6q-55 14 -60 14q-18 0 -24 -14z" />
    <glyph glyph-name="glyph337" unicode="&#x1ed8;" horiz-adv-x="564" 
d="M28 200v268q0 196 252 196q115 0 171 -37q67 -45 67 -153v-294q0 -107 -67 -153q-56 -37 -171 -37q-121 0 -181 44q-71 51 -71 166zM314 194v274q0 26 -1 31q-4 21 -33 21q-42 0 -42 -52v-274q0 -62 42 -62q34 0 34 62zM281 762l-30 -50h-108l90 126h90l88 -126h-100z
M216 -118q0 27 18.5 42.5t45.5 15.5t46.5 -15.5t19.5 -42.5q0 -30 -17.5 -52t-46.5 -22t-47.5 22.5t-18.5 51.5z" />
    <glyph glyph-name="glyph338" unicode="&#x1ed9;" horiz-adv-x="482" 
d="M10 168v168q0 96 63 130q46 24 153 24q110 0 153 -23q61 -33 61 -131v-180q0 -100 -60 -135q-44 -25 -154 -25q-112 0 -157 29q-59 38 -59 143zM262 156v186q0 40 -36 40t-36 -46v-180q0 -48 36 -48t36 48zM230 590l-30 -50h-108l90 126h90l88 -126h-100zM162 -112
q0 27 18.5 42.5t45.5 15.5t46.5 -15.5t19.5 -42.5q0 -30 -17.5 -52t-46.5 -22t-47.5 22.5t-18.5 51.5z" />
    <glyph glyph-name="glyph339" unicode="&#x1eda;" horiz-adv-x="564" 
d="M502 564q16 -32 16 -90v-294q0 -107 -67 -153q-56 -37 -171 -37q-121 0 -181 44q-71 51 -71 166v268q0 196 252 196q143 0 196 -56q23 26 28 46q-31 0 -52.5 21.5t-21.5 52.5t21.5 50.5t52.5 19.5q40 0 64 -23t24 -63q0 -33 -14 -64q-29 -49 -76 -84zM314 194v274
q0 26 -1 31q-4 21 -33 21q-42 0 -42 -52v-274q0 -62 42 -62q34 0 34 62zM229 715l47 147h130l-87 -147h-90z" />
    <glyph glyph-name="glyph340" unicode="&#x1edb;" horiz-adv-x="482" 
d="M430 410q10 -23 10 -74v-180q0 -100 -60 -135q-44 -25 -154 -25q-112 0 -157 29q-59 38 -59 143v168q0 96 63 130q46 24 153 24q138 0 182 -44q21 21 26 40q-26 0 -44 18t-18 44q0 25 18.5 40.5t43.5 15.5q72 0 72 -70q0 -25 -12 -52q-28 -47 -64 -72zM262 156v186
q0 40 -36 40t-36 -46v-180q0 -48 36 -48t36 48zM188 540l47 147h130l-87 -147h-90z" />
    <glyph glyph-name="glyph341" unicode="&#x1edc;" horiz-adv-x="564" 
d="M502 564q16 -32 16 -90v-294q0 -107 -67 -153q-56 -37 -171 -37q-121 0 -181 44q-71 51 -71 166v268q0 196 252 196q143 0 196 -56q23 26 28 46q-31 0 -52.5 21.5t-21.5 52.5t21.5 50.5t52.5 19.5q40 0 64 -23t24 -63q0 -33 -14 -64q-29 -49 -76 -84zM314 194v274
q0 26 -1 31q-4 21 -33 21q-42 0 -42 -52v-274q0 -62 42 -62q34 0 34 62zM152 839h130l44 -126h-92z" />
    <glyph glyph-name="glyph342" unicode="&#x1edd;" horiz-adv-x="482" 
d="M430 410q10 -23 10 -74v-180q0 -100 -60 -135q-44 -25 -154 -25q-112 0 -157 29q-59 38 -59 143v168q0 96 63 130q46 24 153 24q138 0 182 -44q21 21 26 40q-26 0 -44 18t-18 44q0 25 18.5 40.5t43.5 15.5q72 0 72 -70q0 -25 -12 -52q-28 -47 -64 -72zM262 156v186
q0 40 -36 40t-36 -46v-180q0 -48 36 -48t36 48zM112 666h130l44 -126h-92z" />
    <glyph glyph-name="glyph343" unicode="&#x1ede;" horiz-adv-x="564" 
d="M502 564q16 -32 16 -90v-294q0 -107 -67 -153q-56 -37 -171 -37q-121 0 -181 44q-71 51 -71 166v268q0 196 252 196q143 0 196 -56q23 26 28 46q-31 0 -52.5 21.5t-21.5 52.5t21.5 50.5t52.5 19.5q40 0 64 -23t24 -63q0 -33 -14 -64q-29 -49 -76 -84zM314 194v274
q0 26 -1 31q-4 21 -33 21q-42 0 -42 -52v-274q0 -62 42 -62q34 0 34 62zM161 835v20q5 41 36 64q28 20 71 20h15q97 0 106 -84v-8q0 -33 -17 -53q-9 -10 -34 -27q-31 -15 -31 -44v-8h-58v40q0 13 21 41l30 39v14q0 22 -21 22h-17q-21 0 -21 -22v-14h-80z" />
    <glyph glyph-name="glyph344" unicode="&#x1edf;" horiz-adv-x="482" 
d="M430 410q10 -23 10 -74v-180q0 -100 -60 -135q-44 -25 -154 -25q-112 0 -157 29q-59 38 -59 143v168q0 96 63 130q46 24 153 24q138 0 182 -44q21 21 26 40q-26 0 -44 18t-18 44q0 25 18.5 40.5t43.5 15.5q72 0 72 -70q0 -25 -12 -52q-28 -47 -64 -72zM262 156v186
q0 40 -36 40t-36 -46v-180q0 -48 36 -48t36 48zM110 661v20q5 41 36 64q28 20 71 20h15q97 0 106 -84v-8q0 -33 -17 -53q-9 -10 -34 -27q-31 -15 -31 -44v-8h-58v40q0 13 21 41l30 39v14q0 22 -21 22h-17q-21 0 -21 -22v-14h-80z" />
    <glyph glyph-name="glyph345" unicode="&#x1ee0;" horiz-adv-x="564" 
d="M502 564q16 -32 16 -90v-294q0 -107 -67 -153q-56 -37 -171 -37q-121 0 -181 44q-71 51 -71 166v268q0 196 252 196q143 0 196 -56q23 26 28 46q-31 0 -52.5 21.5t-21.5 52.5t21.5 50.5t52.5 19.5q40 0 64 -23t24 -63q0 -33 -14 -64q-29 -49 -76 -84zM314 194v274
q0 26 -1 31q-4 21 -33 21q-42 0 -42 -52v-274q0 -62 42 -62q34 0 34 62zM197 720h-72q0 42 30 72t72 30q15 0 45.5 -9t46.5 -9q20 0 26 12h68q0 -37 -27 -69.5t-63 -32.5q-18 0 -42 6q-55 14 -60 14q-18 0 -24 -14z" />
    <glyph glyph-name="glyph346" unicode="&#x1ee1;" horiz-adv-x="482" 
d="M430 410q10 -23 10 -74v-180q0 -100 -60 -135q-44 -25 -154 -25q-112 0 -157 29q-59 38 -59 143v168q0 96 63 130q46 24 153 24q138 0 182 -44q21 21 26 40q-26 0 -44 18t-18 44q0 25 18.5 40.5t43.5 15.5q72 0 72 -70q0 -25 -12 -52q-28 -47 -64 -72zM262 156v186
q0 40 -36 40t-36 -46v-180q0 -48 36 -48t36 48zM161 544h-72q0 42 30 72t72 30q15 0 45.5 -9t46.5 -9q20 0 26 12h68q0 -37 -27 -69.5t-63 -32.5q-18 0 -42 6q-55 14 -60 14q-18 0 -24 -14z" />
    <glyph glyph-name="glyph347" unicode="&#x1ee2;" horiz-adv-x="564" 
d="M502 564q16 -32 16 -90v-294q0 -107 -67 -153q-56 -37 -171 -37q-121 0 -181 44q-71 51 -71 166v268q0 196 252 196q143 0 196 -56q23 26 28 46q-31 0 -52.5 21.5t-21.5 52.5t21.5 50.5t52.5 19.5q40 0 64 -23t24 -63q0 -33 -14 -64q-29 -49 -76 -84zM314 194v274
q0 26 -1 31q-4 21 -33 21q-42 0 -42 -52v-274q0 -62 42 -62q34 0 34 62zM213 -119q0 27 18.5 42.5t45.5 15.5t46.5 -15.5t19.5 -42.5q0 -30 -17.5 -52t-46.5 -22t-47.5 22.5t-18.5 51.5z" />
    <glyph glyph-name="glyph348" unicode="&#x1ee3;" horiz-adv-x="482" 
d="M430 410q10 -23 10 -74v-180q0 -100 -60 -135q-44 -25 -154 -25q-112 0 -157 29q-59 38 -59 143v168q0 96 63 130q46 24 153 24q138 0 182 -44q21 21 26 40q-26 0 -44 18t-18 44q0 25 18.5 40.5t43.5 15.5q72 0 72 -70q0 -25 -12 -52q-28 -47 -64 -72zM262 156v186
q0 40 -36 40t-36 -46v-180q0 -48 36 -48t36 48zM162 -112q0 27 18.5 42.5t45.5 15.5t46.5 -15.5t19.5 -42.5q0 -30 -17.5 -52t-46.5 -22t-47.5 22.5t-18.5 51.5z" />
    <glyph glyph-name="glyph349" unicode="&#x1ee4;" horiz-adv-x="564" 
d="M16 652h252v-120q-24 -12 -24 -70v-252q0 -40 1 -46q5 -32 39 -32q36 0 36 50v298q0 43 -24 52v120h246v-120q-30 -18 -30 -88v-244q0 -72 -21 -115q-25 -50 -87 -77q-46 -20 -124 -20q-86 0 -132 20q-108 47 -108 170v300q0 40 -24 54v120zM216 -120q0 27 18.5 42.5
t45.5 15.5t46.5 -15.5t19.5 -42.5q0 -30 -17.5 -52t-46.5 -22t-47.5 22.5t-18.5 51.5z" />
    <glyph glyph-name="glyph350" unicode="&#x1ee5;" horiz-adv-x="522" 
d="M8 480h192q16 -19 16 -60v-204q0 -94 32 -94q11 0 28 10v198q0 31 -24 46v104h210v-312q0 -43 22 -60v-106h-208v24q-30 -30 -108 -30q-77 0 -108 36q-28 33 -28 112v180q0 36 -24 52v104zM197 -108q0 27 18.5 42.5t45.5 15.5t46.5 -15.5t19.5 -42.5q0 -30 -17.5 -52
t-46.5 -22t-47.5 22.5t-18.5 51.5z" />
    <glyph glyph-name="glyph351" unicode="&#x1ee6;" horiz-adv-x="564" 
d="M16 652h252v-120q-24 -12 -24 -70v-252q0 -40 1 -46q5 -32 39 -32q36 0 36 50v298q0 43 -24 52v120h246v-120q-30 -18 -30 -88v-244q0 -72 -21 -115q-25 -50 -87 -77q-46 -20 -124 -20q-86 0 -132 20q-108 47 -108 170v300q0 40 -24 54v120zM158 823v20q5 41 36 64
q28 20 71 20h15q97 0 106 -84v-8q0 -33 -17 -53q-9 -10 -34 -27q-31 -15 -31 -44v-8h-58v40q0 13 21 41l30 39v14q0 22 -21 22h-17q-21 0 -21 -22v-14h-80z" />
    <glyph glyph-name="glyph352" unicode="&#x1ee7;" horiz-adv-x="522" 
d="M8 480h192q16 -19 16 -60v-204q0 -94 32 -94q11 0 28 10v198q0 31 -24 46v104h210v-312q0 -43 22 -60v-106h-208v24q-30 -30 -108 -30q-77 0 -108 36q-28 33 -28 112v180q0 36 -24 52v104zM125 651v20q5 41 36 64q28 20 71 20h15q97 0 106 -84v-8q0 -33 -17 -53
q-9 -10 -34 -27q-31 -15 -31 -44v-8h-58v40q0 13 21 41l30 39v14q0 22 -21 22h-17q-21 0 -21 -22v-14h-80z" />
    <glyph glyph-name="glyph353" unicode="&#x1ee8;" horiz-adv-x="564" 
d="M512 586v-386q0 -72 -21 -115q-25 -50 -87 -77q-46 -20 -124 -20q-86 0 -132 20q-108 47 -108 170v300q0 40 -24 54v120h252v-120q-24 -12 -24 -70v-252q0 -40 1 -46q5 -32 39 -32q36 0 36 50v298q0 43 -24 52v120h210q16 19 18 32q-31 0 -52.5 21.5t-21.5 52.5
t21.5 50.5t52.5 19.5q40 0 64 -23t24 -63q0 -33 -14 -64q-36 -61 -86 -92zM206 702l47 147h130l-87 -147h-90z" />
    <glyph glyph-name="glyph354" unicode="&#x1ee9;" horiz-adv-x="522" 
d="M462 468q17 20 19 22q10 14 13 26q-26 0 -44 18t-18 44q0 25 18.5 40.5t43.5 15.5q72 0 72 -70q0 -25 -12 -52q-28 -47 -74 -78l-18 -12v-254q0 -43 22 -60v-106h-208v24q-30 -30 -108 -30q-77 0 -108 36q-28 33 -28 112v180q0 36 -24 52v104h192q16 -19 16 -60v-204
q0 -94 32 -94q11 0 28 10v198q0 31 -24 46v104h210v-12zM194 544l47 147h130l-87 -147h-90z" />
    <glyph glyph-name="glyph355" unicode="&#x1eea;" horiz-adv-x="564" 
d="M512 586v-386q0 -72 -21 -115q-25 -50 -87 -77q-46 -20 -124 -20q-86 0 -132 20q-108 47 -108 170v300q0 40 -24 54v120h252v-120q-24 -12 -24 -70v-252q0 -40 1 -46q5 -32 39 -32q36 0 36 50v298q0 43 -24 52v120h210q16 19 18 32q-31 0 -52.5 21.5t-21.5 52.5
t21.5 50.5t52.5 19.5q40 0 64 -23t24 -63q0 -33 -14 -64q-36 -61 -86 -92zM136 847h135l47 -144h-86z" />
    <glyph glyph-name="glyph356" unicode="&#x1eeb;" horiz-adv-x="522" 
d="M462 468q17 20 19 22q10 14 13 26q-26 0 -44 18t-18 44q0 25 18.5 40.5t43.5 15.5q72 0 72 -70q0 -25 -12 -52q-28 -47 -74 -78l-18 -12v-254q0 -43 22 -60v-106h-208v24q-30 -30 -108 -30q-77 0 -108 36q-28 33 -28 112v180q0 36 -24 52v104h192q16 -19 16 -60v-204
q0 -94 32 -94q11 0 28 10v198q0 31 -24 46v104h210v-12zM132 665h130l44 -126h-92z" />
    <glyph glyph-name="glyph357" unicode="&#x1eec;" horiz-adv-x="564" 
d="M512 586v-386q0 -72 -21 -115q-25 -50 -87 -77q-46 -20 -124 -20q-86 0 -132 20q-108 47 -108 170v300q0 40 -24 54v120h252v-120q-24 -12 -24 -70v-252q0 -40 1 -46q5 -32 39 -32q36 0 36 50v298q0 43 -24 52v120h210q16 19 18 32q-31 0 -52.5 21.5t-21.5 52.5
t21.5 50.5t52.5 19.5q40 0 64 -23t24 -63q0 -33 -14 -64q-36 -61 -86 -92zM158 823v20q5 41 36 64q28 20 71 20h15q97 0 106 -84v-8q0 -33 -17 -53q-9 -10 -34 -27q-31 -15 -31 -44v-8h-58v40q0 13 21 41l30 39v14q0 22 -21 22h-17q-21 0 -21 -22v-14h-80z" />
    <glyph glyph-name="glyph358" unicode="&#x1eed;" horiz-adv-x="522" 
d="M462 468q17 20 19 22q10 14 13 26q-26 0 -44 18t-18 44q0 25 18.5 40.5t43.5 15.5q72 0 72 -70q0 -25 -12 -52q-28 -47 -74 -78l-18 -12v-254q0 -43 22 -60v-106h-208v24q-30 -30 -108 -30q-77 0 -108 36q-28 33 -28 112v180q0 36 -24 52v104h192q16 -19 16 -60v-204
q0 -94 32 -94q11 0 28 10v198q0 31 -24 46v104h210v-12zM125 651v20q5 41 36 64q28 20 71 20h15q97 0 106 -84v-8q0 -33 -17 -53q-9 -10 -34 -27q-31 -15 -31 -44v-8h-58v40q0 13 21 41l30 39v14q0 22 -21 22h-17q-21 0 -21 -22v-14h-80z" />
    <glyph glyph-name="glyph359" unicode="&#x1eee;" horiz-adv-x="564" 
d="M512 586v-386q0 -72 -21 -115q-25 -50 -87 -77q-46 -20 -124 -20q-86 0 -132 20q-108 47 -108 170v300q0 40 -24 54v120h252v-120q-24 -12 -24 -70v-252q0 -40 1 -46q5 -32 39 -32q36 0 36 50v298q0 43 -24 52v120h210q16 19 18 32q-31 0 -52.5 21.5t-21.5 52.5
t21.5 50.5t52.5 19.5q40 0 64 -23t24 -63q0 -33 -14 -64q-36 -61 -86 -92zM204 707h-72q0 42 30 72t72 30q15 0 45.5 -9t46.5 -9q20 0 26 12h68q0 -37 -27 -69.5t-63 -32.5q-18 0 -42 6q-55 14 -60 14q-18 0 -24 -14z" />
    <glyph glyph-name="glyph360" unicode="&#x1eef;" horiz-adv-x="522" 
d="M462 468q17 20 19 22q10 14 13 26q-26 0 -44 18t-18 44q0 25 18.5 40.5t43.5 15.5q72 0 72 -70q0 -25 -12 -52q-28 -47 -74 -78l-18 -12v-254q0 -43 22 -60v-106h-208v24q-30 -30 -108 -30q-77 0 -108 36q-28 33 -28 112v180q0 36 -24 52v104h192q16 -19 16 -60v-204
q0 -94 32 -94q11 0 28 10v198q0 31 -24 46v104h210v-12zM174 538h-72q0 42 30 72t72 30q15 0 45.5 -9t46.5 -9q20 0 26 12h68q0 -37 -27 -69.5t-63 -32.5q-18 0 -42 6q-55 14 -60 14q-18 0 -24 -14z" />
    <glyph glyph-name="glyph361" unicode="&#x1ef0;" horiz-adv-x="564" 
d="M512 586v-386q0 -72 -21 -115q-25 -50 -87 -77q-46 -20 -124 -20q-86 0 -132 20q-108 47 -108 170v300q0 40 -24 54v120h252v-120q-24 -12 -24 -70v-252q0 -40 1 -46q5 -32 39 -32q36 0 36 50v298q0 43 -24 52v120h210q16 19 18 32q-31 0 -52.5 21.5t-21.5 52.5
t21.5 50.5t52.5 19.5q40 0 64 -23t24 -63q0 -33 -14 -64q-36 -61 -86 -92zM216 -120q0 27 18.5 42.5t45.5 15.5t46.5 -15.5t19.5 -42.5q0 -30 -17.5 -52t-46.5 -22t-47.5 22.5t-18.5 51.5z" />
    <glyph glyph-name="glyph362" unicode="&#x1ef1;" horiz-adv-x="522" 
d="M462 468q17 20 19 22q10 14 13 26q-26 0 -44 18t-18 44q0 25 18.5 40.5t43.5 15.5q72 0 72 -70q0 -25 -12 -52q-28 -47 -74 -78l-18 -12v-254q0 -43 22 -60v-106h-208v24q-30 -30 -108 -30q-77 0 -108 36q-28 33 -28 112v180q0 36 -24 52v104h192q16 -19 16 -60v-204
q0 -94 32 -94q11 0 28 10v198q0 31 -24 46v104h210v-12zM197 -108q0 27 18.5 42.5t45.5 15.5t46.5 -15.5t19.5 -42.5q0 -30 -17.5 -52t-46.5 -22t-47.5 22.5t-18.5 51.5z" />
    <glyph glyph-name="glyph363" unicode="&#x1ef2;" horiz-adv-x="542" 
d="M0 652h234v-90q0 -48 34 -112q36 50 36 112v90h210v-114q-33 -33 -48 -64l-108 -222v-84q0 -37 24 -54v-112h-252v112q24 18 24 54v78l-100 204l-22 50q-17 34 -32 38v114zM133 846h135l47 -144h-86z" />
    <glyph glyph-name="glyph364" unicode="&#x1ef3;" horiz-adv-x="482" 
d="M-2 480h240v-110q-20 0 -20 -22q0 -13 5 -29q9 -29 9 -31l24 -78l18 78q3 20 10 60q0 22 -16 22v110h202v-110q-15 -10 -42 -94l-96 -298q-25 -79 -39 -99q-17 -26 -61 -43q-31 -12 -70 -12q-43 0 -86 16v108q61 0 72 48l-90 250l-21.5 66.5t-38.5 57.5v110zM101 675h135
l47 -144h-86z" />
    <glyph glyph-name="glyph365" unicode="&#x1ef4;" horiz-adv-x="542" 
d="M0 652h234v-90q0 -48 34 -112q36 50 36 112v90h210v-114q-33 -33 -48 -64l-108 -222v-84q0 -37 24 -54v-112h-252v112q24 18 24 54v78l-100 204l-22 50q-17 34 -32 38v114zM202 -96q0 27 18.5 42.5t45.5 15.5t46.5 -15.5t19.5 -42.5q0 -30 -17.5 -52t-46.5 -22
t-47.5 22.5t-18.5 51.5z" />
    <glyph glyph-name="glyph366" unicode="&#x1ef5;" horiz-adv-x="482" 
d="M-2 480h240v-110q-20 0 -20 -22q0 -13 5 -29q9 -29 9 -31l24 -78l18 78q3 20 10 60q0 22 -16 22v110h202v-110q-15 -10 -42 -94l-96 -298q-23 -70 -31 -85q-22 -39 -69 -57q-31 -12 -70 -12q-43 0 -86 16v108q61 0 72 48l-90 250l-21.5 66.5t-38.5 57.5v110zM372 -92
q0 27 18.5 42.5t45.5 15.5t46.5 -15.5t19.5 -42.5q0 -30 -17.5 -52t-46.5 -22t-47.5 22.5t-18.5 51.5z" />
    <glyph glyph-name="glyph367" unicode="&#x1ef6;" horiz-adv-x="542" 
d="M0 652h234v-90q0 -48 34 -112q36 50 36 112v90h210v-114q-33 -33 -48 -64l-108 -222v-84q0 -37 24 -54v-112h-252v112q24 18 24 54v78l-100 204l-22 50q-17 34 -32 38v114zM151 822v20q5 41 36 64q28 20 71 20h15q97 0 106 -84v-8q0 -33 -17 -53q-9 -10 -34 -27
q-31 -15 -31 -44v-8h-58v40q0 13 21 41l30 39v14q0 22 -21 22h-17q-21 0 -21 -22v-14h-80z" />
    <glyph glyph-name="glyph368" unicode="&#x1ef7;" horiz-adv-x="482" 
d="M-2 480h240v-110q-20 0 -20 -22q0 -13 5 -29q9 -29 9 -31l24 -78l18 78q3 20 10 60q0 22 -16 22v110h202v-110q-15 -10 -42 -94l-96 -298q-25 -79 -39 -99q-17 -26 -61 -43q-31 -12 -70 -12q-43 0 -86 16v108q61 0 72 48l-90 250l-21.5 66.5t-38.5 57.5v110zM122 650v20
q5 41 36 64q28 20 71 20h15q97 0 106 -84v-8q0 -33 -17 -53q-9 -10 -34 -27q-31 -15 -31 -44v-8h-58v40q0 13 21 41l30 39v14q0 22 -21 22h-17q-21 0 -21 -22v-14h-80z" />
    <glyph glyph-name="glyph369" unicode="&#x1ef8;" horiz-adv-x="542" 
d="M0 652h234v-90q0 -48 34 -112q36 50 36 112v90h210v-114q-33 -33 -48 -64l-108 -222v-84q0 -37 24 -54v-112h-252v112q24 18 24 54v78l-100 204l-22 50q-17 34 -32 38v114zM178 708h-72q0 42 30 72t72 30q15 0 45.5 -9t46.5 -9q20 0 26 12h68q0 -37 -27 -69.5t-63 -32.5
q-18 0 -42 6q-55 14 -60 14q-18 0 -24 -14z" />
    <glyph glyph-name="glyph370" unicode="&#x1ef9;" horiz-adv-x="482" 
d="M-2 480h240v-110q-20 0 -20 -22q0 -13 5 -29q9 -29 9 -31l24 -78l18 78q3 20 10 60q0 22 -16 22v110h202v-110q-15 -10 -42 -94l-96 -298q-25 -79 -39 -99q-17 -26 -61 -43q-31 -12 -70 -12q-43 0 -86 16v108q61 0 72 48l-90 250l-21.5 66.5t-38.5 57.5v110zM155 537h-72
q0 42 30 72t72 30q15 0 45.5 -9t46.5 -9q20 0 26 12h68q0 -37 -27 -69.5t-63 -32.5q-18 0 -42 6q-55 14 -60 14q-18 0 -24 -14z" />
  </font>
</defs>
</svg>
